<svg width="33" height="33" viewBox="0 0 33 33" fill="none" xmlns="http://www.w3.org/2000/svg">
<path d="M16.5 0C10.4347 0 5.5 4.93473 5.5 11C5.5 12.8208 5.95523 14.6262 6.82064 16.2274L15.8985 32.6455C16.0193 32.8644 16.2496 33 16.5 33C16.7504 33 16.9807 32.8644 17.1016 32.6455L26.1828 16.222C27.0448 14.6262 27.5 12.8208 27.5 11C27.5 4.93472 22.5653 0 16.5 0ZM16.5 16.5C13.4674 16.5 11 14.0327 11 11C11 7.96737 13.4674 5.50004 16.5 5.50004C19.5327 5.50004 22 7.96737 22 11C22 14.0327 19.5327 16.5 16.5 16.5Z" fill="white"/>
</svg>
