<svg width="68" height="68" viewBox="0 0 68 68" fill="none" xmlns="http://www.w3.org/2000/svg">
<g clip-path="url(#clip0)">
<path d="M15.5544 67.662H33.9997H52.445V65.2026H15.5544V67.662Z" fill="#18B9ED"/>
<path d="M54.0425 5.55215C53.428 5.07899 52.729 4.72688 51.9829 4.51464L44.7298 2.44192C44.5287 2.38435 44.3455 2.27648 44.1979 2.12854L42.4073 0.33812C39.8172 1.71698 36.9341 2.45456 34.0001 2.48885C31.066 2.45456 28.183 1.71698 25.5928 0.33812L23.8023 2.12854C23.6545 2.27662 23.4714 2.38449 23.2703 2.44205L16.0172 4.51464C15.2711 4.72688 14.5723 5.07899 13.9577 5.55215L0 16.2891L8.45526 28.9739L10.8057 27.0933L4.6942 17.9272C4.32555 17.3624 4.48062 16.606 5.04187 16.2319C5.60313 15.8577 6.36088 16.0055 6.74043 16.563L12.7332 25.551L13.5566 24.8922C13.9258 24.5969 14.4316 24.5394 14.8578 24.7443C15.2841 24.9491 15.5549 25.3802 15.5549 25.8529V62.7435H52.4455V25.8528C52.4455 25.3799 52.7163 24.949 53.1426 24.7441C53.5687 24.5393 54.0745 24.5969 54.4438 24.8921L55.2672 25.5509L61.2598 16.5628C61.638 16.0015 62.3986 15.8512 62.9619 16.2267C63.5252 16.6023 63.6789 17.3622 63.3062 17.927L57.1947 27.0931L59.5451 28.9738L68.0004 16.289L54.0425 5.55215Z" fill="#18B9ED"/>
</g>
<defs>
<clipPath id="clip0">
<rect width="68" height="68" fill="white"/>
</clipPath>
</defs>
</svg>
