<svg width="68" height="68" viewBox="0 0 68 68" fill="none" xmlns="http://www.w3.org/2000/svg">
<g clip-path="url(#clip0)">
<path d="M32.0082 63.8228V43.8795L24.1414 63.8228H32.0082Z" fill="#18B9ED"/>
<path d="M35.9922 63.8228H43.8591L35.9922 43.8795V63.8228Z" fill="#18B9ED"/>
<path d="M35.8485 32.6708L48.1423 63.8228H54.3489C55.7051 63.8228 56.9489 63.0271 57.5175 61.7958L60.1427 56.1107L62.6871 60.1045L64.3276 62.6795C64.7074 63.2757 65.3515 63.6015 66.0097 63.6015C66.3758 63.6015 66.7465 63.5006 67.0783 63.2893C67.7866 62.838 68.1117 62.0136 67.9636 61.236C67.9867 61.1146 68 60.9897 68 60.8616V51.0085C68 49.9083 67.108 49.0163 66.0078 49.0163C64.9076 49.0163 64.0156 49.9083 64.0156 51.0085V54.7744L36.3622 11.3698L37.3793 9.77339L38.9931 7.24026C39.5842 6.3123 39.3113 5.08086 38.3833 4.48971C37.4554 3.8983 36.2237 4.17149 35.6328 5.09945L34.8265 6.36502L34 7.6622L33.1735 6.36502L32.3672 5.09945C31.7761 4.17149 30.5446 3.89856 29.6167 4.48971C28.6888 5.08086 28.4158 6.31243 29.0069 7.24026L30.6207 9.77339L31.6378 11.3698L3.98438 54.7744V51.0085C3.98438 49.9083 3.09241 49.0163 1.99219 49.0163C0.891969 49.0163 0 49.9083 0 51.0085V60.8616C0 60.9897 0.0132812 61.1146 0.0363906 61.236C-0.111695 62.0137 0.21343 62.838 0.921719 63.2893C1.25348 63.5006 1.62403 63.6015 1.99033 63.6015C2.64841 63.6015 3.29255 63.2756 3.6724 62.6795L5.62063 59.6216L8.03436 55.8332L11.6388 62.0776C12.2602 63.1542 13.4184 63.823 14.6614 63.823H19.8579L32.1469 32.6693C32.4332 31.9278 33.1576 31.4036 34.0001 31.4036C34.8424 31.4034 35.5621 31.9293 35.8485 32.6708Z" fill="#18B9ED"/>
</g>
<defs>
<clipPath id="clip0">
<rect width="68" height="68" fill="white"/>
</clipPath>
</defs>
</svg>
