<svg width="27" height="27" viewBox="0 0 27 27" fill="none" xmlns="http://www.w3.org/2000/svg">
<g clip-path="url(#clip0)">
<path d="M14.112 10.7325V12.09C14.112 12.5211 14.1981 12.8828 14.3681 13.1646C14.6025 13.5536 14.9873 13.7764 15.4242 13.7764C15.8522 13.7764 16.2776 13.568 16.6884 13.1572L21.172 8.67357C22.1565 7.68913 22.1565 6.08732 21.172 5.10287L16.6884 0.619217C16.2776 0.20826 15.8522 0 15.4242 0C14.771 0 14.112 0.521576 14.112 1.68647V2.91934C7.74639 3.29528 2.47666 8.18042 1.69348 14.5763C1.6496 14.9335 1.85271 15.2755 2.18745 15.4079C2.2822 15.4454 2.38088 15.4635 2.47831 15.4635C2.72509 15.4635 2.96446 15.348 3.11689 15.1397C5.21761 12.2694 8.59055 10.5557 12.1394 10.5557C12.7969 10.5557 13.4582 10.6151 14.112 10.7325Z" fill="white"/>
<path d="M24.7985 11.592C24.4638 11.4594 24.0819 11.5698 23.8691 11.8604C21.7686 14.7305 18.3956 16.4442 14.8468 16.4442C14.1892 16.4442 13.528 16.3849 12.8742 16.2675V14.91C12.8742 13.7451 12.215 13.2235 11.562 13.2235C11.134 13.2235 10.7086 13.432 10.2976 13.8429L5.81396 18.3264C4.82972 19.3108 4.82972 20.9126 5.81416 21.8973L10.2976 26.3807C10.7086 26.7917 11.134 26.9999 11.562 26.9999C12.215 26.9999 12.8742 26.4784 12.8742 25.3135V24.0806C19.24 23.7047 24.5095 18.8195 25.2927 12.4238C25.3366 12.0664 25.1335 11.7245 24.7985 11.592Z" fill="white"/>
</g>
<defs>
<clipPath id="clip0">
<rect width="27" height="27" fill="white"/>
</clipPath>
</defs>
</svg>
