<svg width="81" height="81" viewBox="0 0 81 81" fill="none" xmlns="http://www.w3.org/2000/svg">
<path d="M12.3906 9.55885C12.3885 9.55885 12.386 9.55885 12.3838 9.55885C11.6177 9.55885 10.8972 9.85749 10.3531 10.4002C9.803 10.9489 9.5 11.6796 9.5 12.4574V55.9207C9.5 57.5146 10.8017 58.8144 12.4021 58.8185C19.1489 58.8346 30.4523 60.2407 38.2502 68.401V22.9154C38.2502 22.3752 38.1122 21.8676 37.8517 21.4476C31.4516 11.1407 19.1527 9.57467 12.3906 9.55885Z" fill="#18B9ED"/>
<path d="M71.5004 55.9207V12.4571C71.5004 11.6793 71.1974 10.9487 70.6473 10.3999C70.1032 9.85722 69.3821 9.55858 68.6168 9.55858C68.6144 9.55858 68.6119 9.55858 68.6098 9.55858C61.848 9.57467 49.5491 11.1407 43.1487 21.4476C42.8882 21.8676 42.7505 22.3752 42.7505 22.9154V68.4008C50.5483 60.2405 61.8518 58.8343 68.5986 58.8182C70.1987 58.8141 71.5004 57.5143 71.5004 55.9207Z" fill="#18B9ED"/>
<path d="M78.1021 19.5822H76.0004V55.9207C76.0004 59.9901 72.6849 63.3084 68.6092 63.3185C62.8866 63.3321 53.4507 64.4511 46.7681 70.776C58.3257 67.9461 70.5096 69.7857 77.4533 71.3681C78.3203 71.5655 79.2162 71.3615 79.9108 70.8079C80.603 70.2556 81.0001 69.4301 81.0001 68.544V22.4802C81.0004 20.8823 79.7 19.5822 78.1021 19.5822Z" fill="#18B9ED"/>
<path d="M4.99965 55.9207V19.5822H2.89801C1.30037 19.5822 0 20.8823 0 22.4802V68.5432C0 69.4295 0.397092 70.2548 1.08928 70.8071C1.78337 71.3604 2.67846 71.5653 3.54683 71.3673C10.4905 69.7846 22.6746 67.9453 34.2317 70.7752C27.5494 64.4506 18.1135 63.3319 12.3909 63.3182C8.31548 63.3084 4.99965 59.9901 4.99965 55.9207Z" fill="#18B9ED"/>
</svg>
