<svg width="42" height="42" viewBox="0 0 42 42" fill="none" xmlns="http://www.w3.org/2000/svg">
<g clip-path="url(#clip0)">
<path d="M16.1796 27.0397L15.5352 30.8671C15.4473 31.3904 15.662 31.9177 16.0904 32.23C16.5194 32.5416 17.0891 32.5833 17.5579 32.3377L20.999 30.5414L24.4401 32.338C24.6436 32.4437 24.8667 32.4968 25.0875 32.4968C25.3766 32.4968 25.6649 32.4063 25.9082 32.2303C26.3369 31.918 26.5523 31.3907 26.4638 30.8675L25.8201 27.0401L28.5908 24.3221C28.9697 23.951 29.1047 23.3971 28.9421 22.893C28.7789 22.3893 28.3422 22.0205 27.8179 21.9431L23.9784 21.3737L22.2491 17.898C22.0145 17.4235 21.5286 17.123 20.9986 17.123C20.4697 17.123 19.9841 17.4235 19.7475 17.898L18.0199 21.3737L14.1804 21.9427C13.6551 22.0201 13.2204 22.3889 13.0568 22.8927C12.8933 23.3968 13.0279 23.9513 13.4075 24.3218L16.1796 27.0397Z" fill="white"/>
<path d="M37.5008 4.46506H33.1044V2.02642C33.1044 0.907213 32.1972 0 31.0776 0H30.7563C29.637 0 28.7302 0.907213 28.7302 2.02642V4.46506H13.2184V2.02642C13.2184 0.907213 12.3112 0 11.1923 0H10.8706C9.75138 0 8.8445 0.907213 8.8445 2.02642V4.46506H4.49924C2.19991 4.46506 0.328613 6.33569 0.328613 8.63569V37.8297C0.328613 40.1284 2.19991 42.0003 4.49924 42.0003H37.5011C39.8001 42.0003 41.6718 40.1287 41.6718 37.8297V8.63569C41.6714 6.33569 39.7998 4.46506 37.5008 4.46506ZM36.9567 37.2856H5.04336V14.5598H36.9567V37.2856Z" fill="white"/>
</g>
<defs>
<clipPath id="clip0">
<rect width="42" height="42" fill="white"/>
</clipPath>
</defs>
</svg>
