<svg width="68" height="68" viewBox="0 0 68 68" fill="none" xmlns="http://www.w3.org/2000/svg">
<g clip-path="url(#clip0)">
<path d="M26.1964 43.7786L25.1531 49.9753C25.0109 50.8225 25.3585 51.6763 26.0521 52.1818C26.7467 52.6863 27.6691 52.7539 28.428 52.3562L33.9993 49.448L39.5706 52.3567C39.9002 52.5278 40.2614 52.6139 40.6188 52.6139C41.0868 52.6139 41.5537 52.4673 41.9476 52.1824C42.6417 51.6768 42.9904 50.8231 42.8471 49.9759L41.8049 43.7792L46.2909 39.3787C46.9043 38.7778 47.1228 37.881 46.8596 37.0649C46.5954 36.2493 45.8882 35.6522 45.0394 35.5268L38.8231 34.605L36.0233 28.9776C35.6435 28.2094 34.8568 27.7229 33.9987 27.7229C33.1423 27.7229 32.3561 28.2094 31.9731 28.9776L29.176 34.605L22.9597 35.5263C22.1092 35.6516 21.4053 36.2487 21.1406 37.0643C20.8758 37.8804 21.0937 38.7783 21.7083 39.3781L26.1964 43.7786Z" fill="#18B9ED"/>
<path d="M60.716 7.22915H53.598V3.28088C53.598 1.46882 52.1292 0 50.3166 0H49.7963C47.9842 0 46.5159 1.46882 46.5159 3.28088V7.22915H21.4016V3.28088C21.4016 1.46882 19.9328 0 18.1213 0H17.6004C15.7884 0 14.3201 1.46882 14.3201 3.28088V7.22915H7.28491C3.56219 7.22915 0.532471 10.2578 0.532471 13.9816V61.2481C0.532471 64.9697 3.56219 68.0005 7.28491 68.0005H60.7166C64.4387 68.0005 67.469 64.9703 67.469 61.2481V13.9816C67.4684 10.2578 64.4382 7.22915 60.716 7.22915ZM59.835 60.3671H8.16587V23.5731H59.835V60.3671Z" fill="#18B9ED"/>
</g>
<defs>
<clipPath id="clip0">
<rect width="68" height="68" fill="white"/>
</clipPath>
</defs>
</svg>
