<svg width="38" height="38" viewBox="0 0 38 38" fill="none" xmlns="http://www.w3.org/2000/svg">
<g clip-path="url(#clip0)">
<path d="M37.8405 12.3071C37.3632 9.51134 35.8439 6.71533 33.5628 4.4341C31.2823 2.1548 28.4876 0.636796 25.6932 0.159775C22.7097 -0.349718 20.0677 0.368564 18.2543 2.18192C16.8162 3.61997 16.1827 5.82727 15.5119 8.16408C14.8704 10.3994 14.207 12.7109 12.8446 14.2818C11.2246 16.1497 10.1813 18.4521 9.90693 20.7647C9.70215 22.4909 9.953 24.0717 10.6012 25.3001L0.00292969 35.8983L2.1045 37.9999L12.7042 27.4003C13.6516 27.8993 14.8075 28.163 16.0786 28.163C16.455 28.163 16.8415 28.14 17.2355 28.0933C19.5482 27.8189 21.8505 26.7757 23.7185 25.1556C25.2894 23.7933 27.6009 23.1299 29.8362 22.4883C32.173 21.8177 34.3802 21.1841 35.8183 19.7461C37.6318 17.9326 38.3499 15.2907 37.8405 12.3071ZM26.9299 20.2564C25.9769 20.5652 25.0177 20.9232 24.1064 21.3792V17.0152H26.9299V20.2564ZM21.1343 11.1453V13.9714H16.5813C17.0436 13.0617 17.4065 12.1 17.7184 11.1453H21.1343ZM21.1343 17.0152V22.1163C20.0902 21.7816 18.7489 21.1972 17.7776 20.2263C16.8248 19.2738 16.2458 18.0461 15.909 17.0152H21.1343ZM24.1064 13.9714V11.1453H26.9299V13.9714H24.1064ZM29.902 11.1453H34.4688C34.6677 11.6961 34.8164 12.2541 34.9108 12.8072C34.9792 13.2077 35.0165 13.5965 35.0244 13.9714H29.902V11.1453ZM32.8679 8.17582H29.902V5.19005C30.4435 5.59114 30.966 6.04082 31.4612 6.53574C31.9812 7.05564 32.4517 7.6054 32.8679 8.17582ZM26.9299 3.5603V8.17582H24.1064V2.9774C24.4573 2.98862 24.8201 3.02577 25.193 3.08945C25.7721 3.18834 26.3536 3.34705 26.9299 3.5603ZM21.1343 3.67473V8.17582H18.6025C19.0851 6.53106 19.5855 5.05386 20.3559 4.28349C20.5895 4.04988 20.8502 3.84696 21.1343 3.67473ZM13.5891 24.4136C12.621 23.4454 12.5305 21.1574 13.4611 18.8824C13.9369 20.0315 14.643 21.2952 15.6764 22.3281C16.7076 23.359 17.9683 24.0641 19.1154 24.5398C16.8431 25.4688 14.5584 25.379 13.5891 24.4136ZM29.902 19.375V17.0152H34.2776C34.116 17.2693 33.929 17.4321 33.7167 17.6444C32.9585 18.4026 31.5155 18.8993 29.902 19.375Z" fill="#18B9ED"/>
</g>
<defs>
<clipPath id="clip0">
<rect width="38" height="38" fill="white"/>
</clipPath>
</defs>
</svg>
