<svg width="51" height="51" viewBox="0 0 51 51" fill="none" xmlns="http://www.w3.org/2000/svg">
<g clip-path="url(#clip0)">
<path d="M50.7859 16.5176C50.1453 12.7653 48.1063 9.01281 45.0447 5.95115C41.9841 2.89208 38.2333 0.85477 34.4829 0.214556C30.4788 -0.469236 26.933 0.494774 24.4992 2.92848C22.569 4.8585 21.7188 7.82093 20.8186 10.9572C19.9576 13.9572 19.0672 17.0595 17.2388 19.1678C15.0646 21.6748 13.6644 24.7648 13.2961 27.8686C13.0213 30.1852 13.3579 32.3068 14.2279 33.9555L0.00390625 48.1794L2.82444 51L17.0503 36.7741C18.3218 37.444 19.8732 37.7979 21.5791 37.7979C22.0843 37.7979 22.603 37.767 23.1319 37.7043C26.2357 37.3361 29.3257 35.9359 31.8327 33.7617C33.941 31.9333 37.0433 31.0428 40.0433 30.1818C43.1795 29.2817 46.1419 28.4314 48.0719 26.5014C50.5058 24.0675 51.4696 20.5218 50.7859 16.5176ZM36.1428 27.1864C34.8636 27.6008 33.5763 28.0813 32.3533 28.6933V22.8363H36.1428V27.1864ZM28.3645 14.9583V18.7512H22.2538C22.8743 17.5302 23.3613 16.2396 23.78 14.9583H28.3645ZM28.3645 22.8363V29.6825C26.9632 29.2334 25.163 28.449 23.8594 27.1459C22.5806 25.8676 21.8036 24.2199 21.3515 22.8363H28.3645ZM32.3533 18.7512V14.9583H36.1428V18.7512H32.3533ZM40.1316 14.9583H46.2607C46.5277 15.6976 46.7272 16.4464 46.854 17.1888C46.9457 17.7263 46.9958 18.248 47.0065 18.7512H40.1316V14.9583ZM44.1121 10.9729H40.1316V6.96572C40.8583 7.50402 41.5596 8.10753 42.2242 8.77178C42.9221 9.46953 43.5536 10.2074 44.1121 10.9729ZM36.1428 4.77842V10.9729H32.3533V3.9961C32.8242 4.01116 33.3112 4.06102 33.8116 4.14648C34.5889 4.27921 35.3693 4.49222 36.1428 4.77842ZM28.3645 4.93199V10.9729H24.9665C25.6142 8.7655 26.2858 6.78293 27.3197 5.74901C27.6333 5.43549 27.9831 5.16315 28.3645 4.93199ZM18.238 32.7657C16.9387 31.4663 16.8172 28.3956 18.0662 25.3422C18.7048 26.8845 19.6524 28.5805 21.0393 29.9668C22.4233 31.3504 24.1153 32.2966 25.6548 32.9352C22.6052 34.1819 19.5389 34.0614 18.238 32.7657ZM40.1316 26.0034V22.8363H46.0042C45.7873 23.1774 45.5363 23.3959 45.2514 23.6808C44.2337 24.6983 42.2971 25.365 40.1316 26.0034Z" fill="white"/>
</g>
<defs>
<clipPath id="clip0">
<rect width="51" height="51" fill="white"/>
</clipPath>
</defs>
</svg>
