<svg width="29" height="29" viewBox="0 0 29 29" fill="none" xmlns="http://www.w3.org/2000/svg">
<path d="M26.4512 3.45508H9.3457C7.93988 3.45508 6.79688 4.59865 6.79688 6.00391C6.79688 7.40973 7.93988 8.55273 9.3457 8.55273H26.4512C27.8564 8.55273 29 7.40973 29 6.00391C29 4.59865 27.8564 3.45508 26.4512 3.45508Z" fill="white"/>
<path d="M26.4512 11.9512H9.3457C7.93988 11.9512 6.79688 13.0947 6.79688 14.5C6.79688 15.9058 7.93988 17.0488 9.3457 17.0488H26.4512C27.8564 17.0488 29 15.9058 29 14.5C29 13.0947 27.8564 11.9512 26.4512 11.9512Z" fill="white"/>
<path d="M26.4512 20.4473H9.3457C7.93988 20.4473 6.79688 21.5908 6.79688 22.9961C6.79688 24.4019 7.93988 25.5449 9.3457 25.5449H26.4512C27.8564 25.5449 29 24.4019 29 22.9961C29 21.5908 27.8564 20.4473 26.4512 20.4473Z" fill="white"/>
<path d="M2.54883 3.45508C1.14301 3.45508 0 4.59865 0 6.00391C0 7.40973 1.14301 8.55273 2.54883 8.55273C3.95408 8.55273 5.09766 7.40973 5.09766 6.00391C5.09766 4.59865 3.95408 3.45508 2.54883 3.45508Z" fill="white"/>
<path d="M2.54883 11.9512C1.14301 11.9512 0 13.0947 0 14.5C0 15.9058 1.14301 17.0488 2.54883 17.0488C3.95408 17.0488 5.09766 15.9058 5.09766 14.5C5.09766 13.0947 3.95408 11.9512 2.54883 11.9512Z" fill="white"/>
<path d="M2.54883 20.4473C1.14301 20.4473 0 21.5908 0 22.9961C0 24.4019 1.14301 25.5449 2.54883 25.5449C3.95408 25.5449 5.09766 24.4019 5.09766 22.9961C5.09766 21.5908 3.95408 20.4473 2.54883 20.4473Z" fill="white"/>
</svg>
