<svg width="33" height="33" viewBox="0 0 33 33" fill="none" xmlns="http://www.w3.org/2000/svg">
<g clip-path="url(#clip0)">
<path d="M13.6653 19.335C10.5155 16.1853 9.80431 13.0355 9.64386 11.7735C9.59903 11.4246 9.71911 11.0746 9.96874 10.8267L12.5177 8.27891C12.8927 7.90419 12.9592 7.32019 12.6782 6.87072L8.61973 0.568859C8.3088 0.0711557 7.67037 -0.10847 7.14554 0.154083L0.630312 3.22251C0.205897 3.4315 -0.0437381 3.88243 0.00444955 4.35305C0.345829 7.59615 1.75971 15.5685 9.59436 23.4037C17.429 31.2389 25.4002 32.6523 28.645 32.9936C29.1157 33.0418 29.5666 32.7922 29.7756 32.3678L32.844 25.8525C33.1056 25.3288 32.9271 24.6921 32.4315 24.3806L26.1296 20.3233C25.6804 20.042 25.0965 20.1081 24.7215 20.4827L22.1736 23.0316C21.9257 23.2813 21.5758 23.4013 21.2269 23.3565C19.9649 23.196 16.8151 22.4848 13.6653 19.335Z" fill="white"/>
<path d="M26.1726 17.638C25.5442 17.638 25.0347 17.1285 25.0347 16.5C25.0294 11.7888 21.2115 7.97089 16.5002 7.96556C15.8718 7.96556 15.3623 7.45609 15.3623 6.82763C15.3623 6.19917 15.8718 5.6897 16.5002 5.6897C22.4679 5.69628 27.304 10.5324 27.3106 16.5C27.3106 17.1285 26.8011 17.638 26.1726 17.638Z" fill="white"/>
<path d="M31.8623 17.6379C31.2338 17.6379 30.7244 17.1285 30.7244 16.5C30.7156 8.64787 24.3524 2.28464 16.5002 2.27586C15.8718 2.27586 15.3623 1.76639 15.3623 1.13793C15.3623 0.509469 15.8718 0 16.5002 0C25.6088 0.0100342 32.9902 7.39146 33.0002 16.5C33.0002 16.8018 32.8803 17.0912 32.6669 17.3046C32.4535 17.518 32.1641 17.6379 31.8623 17.6379Z" fill="white"/>
</g>
<defs>
<clipPath id="clip0">
<rect width="33" height="33" fill="white"/>
</clipPath>
</defs>
</svg>
