<svg width="51" height="51" viewBox="0 0 51 51" fill="none" xmlns="http://www.w3.org/2000/svg">
<g clip-path="url(#clip0)">
<path d="M46.1989 7.4707V0H4.80109V7.4707H0V50.9004H51V7.4707H46.1989ZM48.0117 17.0729H41.3978V10.459H48.0117V17.0729ZM19.2048 10.459V17.0729H12.5905V10.459H19.2048ZM35.1022 23.0495C33.3863 23.0495 31.9719 21.7359 31.8108 20.0612H38.3936C38.2329 21.7359 36.8181 23.0495 35.1022 23.0495ZM15.8978 23.0495C14.1819 23.0495 12.7675 21.7359 12.6064 20.0612H19.1892C19.0281 21.7359 17.6133 23.0495 15.8978 23.0495ZM31.7952 17.0729V10.459H38.4095V17.0729H31.7952ZM28.807 17.0729H22.193V10.459H28.807V17.0729ZM28.7914 20.0612C28.6303 21.7359 27.2159 23.0495 25.5 23.0495C23.7841 23.0495 22.3697 21.7359 22.2086 20.0612H28.7914ZM6.29523 26.0377C8.21777 26.0377 9.9407 25.1708 11.0963 23.8078C11.9426 24.8058 13.0932 25.537 14.4033 25.8572V40.4414H2.98828V25.0961C3.95013 25.6926 5.0828 26.0377 6.29523 26.0377ZM3.00385 20.0612H9.58662C9.42593 21.7359 8.01116 23.0495 6.29523 23.0495C4.57931 23.0495 3.16493 21.7359 3.00385 20.0612ZM17.392 25.8572C18.7024 25.537 19.8526 24.8058 20.6989 23.8078C21.8545 25.1708 23.5775 26.0377 25.5 26.0377C27.4225 26.0377 29.1455 25.1704 30.3011 23.8078C31.1474 24.8058 32.2976 25.537 33.608 25.8572V47.9121H17.392V25.8572ZM36.5963 25.8572C37.9068 25.537 39.0574 24.8058 39.9033 23.8082C41.0589 25.1708 42.7818 26.0381 44.7048 26.0381C45.9172 26.0381 47.0499 25.6926 48.0117 25.0961V40.4414H36.5963V25.8572ZM41.4134 20.0612H47.9962C47.8351 21.7359 46.4207 23.0495 44.7048 23.0495C42.9888 23.0495 41.5741 21.7359 41.4134 20.0612ZM7.78938 2.98828H43.2106V7.4707H7.78938V2.98828ZM9.60219 10.459V17.0729H2.98828V10.459H9.60219ZM2.98828 43.4297H14.4037V47.9121H2.98828V43.4297ZM36.5963 47.9121V43.4297H48.0117V47.9121H36.5963Z" fill="white"/>
</g>
<defs>
<clipPath id="clip0">
<rect width="51" height="51" fill="white"/>
</clipPath>
</defs>
</svg>
