<svg width="29" height="29" viewBox="0 0 29 29" fill="none" xmlns="http://www.w3.org/2000/svg">
<g clip-path="url(#clip0)">
<path d="M19.0531 3.51531C19.5223 3.51531 19.9028 3.13486 19.9028 2.66557V0.845258C19.8579 -0.282178 18.2478 -0.281328 18.2033 0.845258V2.66557C18.2033 3.13486 18.5838 3.51531 19.0531 3.51531Z" fill="white"/>
<path d="M28.1547 9.09717H26.3344C25.2069 9.14209 25.2078 10.7522 26.3344 10.7966H28.1547C29.2822 10.7518 29.2813 9.14169 28.1547 9.09717Z" fill="white"/>
<path d="M24.8028 5.39908L26.0898 4.11189C26.4215 3.78004 26.4215 3.24198 26.0896 2.91019C25.7578 2.57839 25.2197 2.57845 24.8879 2.9103L23.601 4.19749C23.2692 4.52934 23.2692 5.0674 23.6011 5.39919C23.933 5.73104 24.4711 5.73093 24.8028 5.39908Z" fill="white"/>
<path d="M22.7718 12.464C25.4714 8.3336 20.6633 3.52951 16.5361 6.22823L13.2828 2.97497C13.0594 2.75143 12.7302 2.67054 12.4286 2.76474C12.1269 2.85901 11.9024 3.11291 11.846 3.42386L11.1447 7.28078C5.05993 7.11321 -0.00945485 12.0507 5.59048e-06 18.1385C5.59048e-06 24.1276 4.87247 29 10.8616 29C16.9491 29.0095 21.8872 23.9401 21.7193 17.8554L25.5763 17.1541C25.8872 17.0976 26.1411 16.8732 26.2353 16.5715C26.3296 16.2698 26.2486 15.9408 26.0251 15.7173L22.7718 12.464ZM19.0531 7.15603C21.1206 7.13728 22.4968 9.40382 21.5345 11.2265L17.7733 7.46557C18.1643 7.26321 18.6005 7.15603 19.0531 7.15603ZM14.2107 18.1384L9.35072 22.9985C9.18004 23.1691 8.9024 23.1691 8.73194 22.9987L6.00127 20.2678C5.83092 20.0975 5.82962 19.8212 6.00144 19.6495L10.8616 14.7893L14.2107 18.1384ZM10.8616 27.3005C-1.28129 26.7981 -1.29375 9.50653 10.8365 8.9764L10.0731 13.1745L4.79991 18.4477C3.96388 19.2832 3.96484 20.6352 4.79974 21.4697L7.53041 24.2006C8.09571 24.7656 8.98743 25.0062 9.82641 24.6762L12.3323 27.1819C11.8533 27.2595 11.3622 27.3005 10.8616 27.3005ZM14.2191 26.6652L11.1531 23.5994L12.6819 22.0707L16.1971 25.586C15.5837 26.0274 14.9219 26.3885 14.2191 26.6652ZM17.4813 24.4667L13.8836 20.869L15.8255 18.927L20.0236 18.1637C20.0171 20.6059 19.0501 22.8264 17.4813 24.4667ZM15.6984 17.2227L11.7772 13.3015L13.2278 5.32343L23.6766 15.7722L15.6984 17.2227Z" fill="white"/>
</g>
<defs>
<clipPath id="clip0">
<rect width="29" height="29" fill="white"/>
</clipPath>
</defs>
</svg>
