<svg width="51" height="51" viewBox="0 0 51 51" fill="none" xmlns="http://www.w3.org/2000/svg">
<path d="M50.0482 20.1234L46.8979 18.8959C46.4852 17.5546 45.9508 16.2608 45.3024 15.0341L46.66 11.9435C46.9077 11.3796 46.784 10.7215 46.3485 10.2861L40.7137 4.65126C40.2782 4.21567 39.62 4.09215 39.0563 4.33978L35.9657 5.69736C34.739 5.049 33.4452 4.5146 32.1039 4.10191L30.8766 0.951768C30.653 0.377818 30.1003 0 29.4844 0H21.5156C20.8997 0 20.347 0.377818 20.1234 0.951768L18.8959 4.10211C17.5546 4.51479 16.2609 5.0492 15.0341 5.69756L11.9435 4.33998C11.3795 4.09225 10.7215 4.21597 10.2861 4.65146L4.65136 10.2863C4.21587 10.7218 4.09215 11.3798 4.33988 11.9437L5.69746 15.0343C5.0492 16.261 4.5147 17.5548 4.10201 18.8961L0.951768 20.1234C0.377818 20.347 0 20.8997 0 21.5156V29.4844C0 30.1003 0.377818 30.653 0.951768 30.8766L4.10211 32.1041C4.51479 33.4454 5.0492 34.7391 5.69756 35.9659L4.33998 39.0564C4.09225 39.6203 4.21597 40.2783 4.65146 40.7138L10.2862 46.3485C10.7218 46.7841 11.3798 46.9076 11.9436 46.66L15.0342 45.3024C16.2609 45.9507 17.5546 46.4852 18.896 46.8979L20.1235 50.0482C20.347 50.6222 20.8997 51 21.5156 51H29.4844C30.1003 51 30.653 50.6222 30.8766 50.0482L32.1041 46.8979C33.4454 46.4852 34.7392 45.9508 35.9659 45.3024L39.0565 46.66C39.6205 46.9078 40.2784 46.784 40.7139 46.3485L46.3487 40.7138C46.7842 40.2783 46.9079 39.6203 46.6602 39.0564L45.3026 35.9658C45.951 34.7391 46.4854 33.4453 46.8981 32.104L50.0484 30.8765C50.6222 30.653 51 30.1003 51 29.4844V21.5156C51 20.8997 50.6222 20.347 50.0482 20.1234ZM48.0117 28.463L45.1255 29.5875C44.6838 29.7596 44.35 30.1311 44.2259 30.5886C43.7902 32.1953 43.1564 33.729 42.3421 35.1472C42.1058 35.5586 42.079 36.0577 42.2697 36.4921L43.5133 39.323L39.323 43.5133L36.492 42.2698C36.0576 42.079 35.5585 42.1059 35.1471 42.3422C33.729 43.1564 32.1953 43.7903 30.5885 44.226C30.131 44.3501 29.7595 44.6839 29.5874 45.1256L28.463 48.0117H22.537L21.4125 45.1255C21.2404 44.6838 20.8689 44.35 20.4114 44.2259C18.8047 43.7901 17.2709 43.1563 15.8528 42.3421C15.4413 42.1057 14.9422 42.0789 14.5079 42.2697L11.6769 43.5132L7.48664 39.3229L8.73006 36.4919C8.92092 36.0576 8.89402 35.5584 8.65775 35.1471C7.84344 33.7289 7.20963 32.1952 6.77394 30.5885C6.64982 30.131 6.31603 29.7595 5.87426 29.5874L2.98828 28.463V22.537L5.87446 21.4125C6.31623 21.2404 6.65002 20.8689 6.77414 20.4114C7.20993 18.8047 7.84364 17.2709 8.65795 15.8527C8.89422 15.4413 8.92102 14.9422 8.73026 14.5078L7.48684 11.6769L11.6771 7.48664L14.5081 8.73006C14.9424 8.92082 15.4415 8.89402 15.853 8.65775C17.2711 7.84344 18.8048 7.20963 20.4116 6.77394C20.8691 6.64982 21.2406 6.31603 21.4127 5.87426L22.537 2.98828H28.463L29.5875 5.87446C29.7596 6.31623 30.1311 6.65002 30.5886 6.77414C32.1953 7.20983 33.729 7.84364 35.1472 8.65795C35.5586 8.89422 36.0578 8.92102 36.4921 8.73026L39.3231 7.48684L43.5134 11.6771L42.2698 14.508C42.079 14.9424 42.1059 15.4415 42.3422 15.8529C43.1565 17.2711 43.7903 18.8048 44.226 20.4116C44.3501 20.8691 44.6839 21.2406 45.1256 21.4127L48.0117 22.537V28.463Z" fill="white"/>
<path d="M25.5 9.06445C16.4374 9.06445 9.06445 16.4374 9.06445 25.5C9.06445 34.5626 16.4374 41.9355 25.5 41.9355C34.5626 41.9355 41.9355 34.5626 41.9355 25.5C41.9355 16.4374 34.5626 9.06445 25.5 9.06445ZM37.4531 26.9941H38.8638C38.5761 29.584 37.5503 31.9539 36.0017 33.8887L35.0086 32.8957C34.4252 32.3122 33.4791 32.3122 32.8956 32.8957C32.3121 33.4792 32.3121 34.4252 32.8956 35.0087L33.8887 36.0017C31.9539 37.5503 29.584 38.5762 26.9941 38.8638V37.4531C26.9941 36.628 26.3252 35.959 25.5 35.959C24.6748 35.959 24.0059 36.628 24.0059 37.4531V38.8638C21.416 38.5761 19.0461 37.5503 17.1113 36.0017L18.1044 35.0087C18.6879 34.4252 18.6879 33.4792 18.1044 32.8957C17.521 32.3122 16.5749 32.3122 15.9914 32.8957L14.9983 33.8887C13.4497 31.9539 12.4238 29.584 12.1362 26.9941H13.5469C14.372 26.9941 15.041 26.3252 15.041 25.5C15.041 24.6748 14.372 24.0059 13.5469 24.0059H12.1362C12.4239 21.416 13.4497 19.0461 14.9983 17.1113L15.9914 18.1043C16.5749 18.6878 17.5209 18.6878 18.1044 18.1043C18.6879 17.5208 18.6879 16.5748 18.1044 15.9913L17.1113 14.9983C19.0461 13.4497 21.416 12.4238 24.0059 12.1362V13.5469C24.0059 14.372 24.6748 15.041 25.5 15.041C26.3252 15.041 26.9941 14.372 26.9941 13.5469V12.1362C29.584 12.4239 31.9539 13.4497 33.8887 14.9983L32.8957 15.9913C32.3122 16.5748 32.3122 17.5208 32.8957 18.1043C33.4792 18.6878 34.4252 18.6878 35.0087 18.1043L36.0018 17.1113C37.5503 19.0461 38.5762 21.416 38.8638 24.0059H37.4531C36.628 24.0059 35.959 24.6748 35.959 25.5C35.959 26.3252 36.628 26.9941 37.4531 26.9941Z" fill="white"/>
<path d="M30.4805 24.0059H26.9941V20.5195C26.9941 19.6944 26.3252 19.0254 25.5 19.0254C24.6748 19.0254 24.0059 19.6944 24.0059 20.5195V25.5C24.0059 26.3252 24.6748 26.9941 25.5 26.9941H30.4805C31.3056 26.9941 31.9746 26.3252 31.9746 25.5C31.9746 24.6748 31.3056 24.0059 30.4805 24.0059Z" fill="white"/>
</svg>
