<svg width="38" height="38" viewBox="0 0 38 38" fill="none" xmlns="http://www.w3.org/2000/svg">
<path d="M37.2908 14.9939L34.9435 14.0793C34.636 13.0799 34.2379 12.1159 33.7548 11.2019L34.7663 8.89905C34.9509 8.4789 34.8587 7.98853 34.5342 7.66412L30.3357 3.46564C30.0112 3.14109 29.5208 3.04905 29.1008 3.23356L26.7979 4.24509C25.8839 3.762 24.92 3.36382 23.9206 3.05633L23.0061 0.70916C22.8395 0.281512 22.4276 0 21.9688 0H16.0312C15.5724 0 15.1605 0.281512 14.9939 0.70916L14.0793 3.05648C13.0799 3.36396 12.116 3.76215 11.2019 4.24524L8.89905 3.23371C8.47882 3.04913 7.98853 3.14131 7.66412 3.46579L3.46572 7.66427C3.14123 7.98876 3.04905 8.47905 3.23364 8.8992L4.24516 11.2021C3.76215 12.1161 3.36389 13.08 3.0564 14.0794L0.70916 14.9939C0.281512 15.1605 0 15.5724 0 16.0312V21.9688C0 22.4276 0.281512 22.8395 0.70916 23.0061L3.05648 23.9207C3.36396 24.9201 3.76215 25.884 4.24524 26.7981L3.23371 29.1009C3.04913 29.521 3.14131 30.0113 3.46579 30.3358L7.6642 34.5342C7.98876 34.8588 8.47905 34.9508 8.89913 34.7663L11.202 33.7548C12.116 34.2378 13.0799 34.636 14.0794 34.9435L14.994 37.2908C15.1605 37.7185 15.5724 38 16.0312 38H21.9688C22.4276 38 22.8395 37.7185 23.0061 37.2908L23.9207 34.9435C24.9201 34.636 25.8841 34.2379 26.7981 33.7548L29.1009 34.7663C29.5212 34.9509 30.0114 34.8587 30.3359 34.5342L34.5344 30.3358C34.8588 30.0113 34.951 29.521 34.7664 29.1009L33.7549 26.798C34.238 25.884 34.6362 24.9201 34.9437 23.9206L37.291 23.006C37.7185 22.8395 38 22.4276 38 21.9688V16.0312C38 15.5724 37.7185 15.1605 37.2908 14.9939ZM35.7734 21.2077L33.6229 22.0456C33.2938 22.1738 33.0451 22.4507 32.9526 22.7915C32.628 23.9887 32.1557 25.1314 31.549 26.1881C31.3729 26.4946 31.353 26.8665 31.4951 27.1902L32.4216 29.2995L29.2995 32.4216L27.1901 31.4952C26.8664 31.353 26.4945 31.373 26.188 31.5491C25.1314 32.1557 23.9887 32.628 22.7915 32.9527C22.4506 33.0452 22.1737 33.2939 22.0455 33.623L21.2077 35.7734H16.7923L15.9544 33.6229C15.8262 33.2938 15.5493 33.0451 15.2085 32.9526C14.0113 32.6279 12.8685 32.1556 11.8119 31.549C11.5053 31.3729 11.1334 31.3529 10.8098 31.4951L8.70044 32.4216L5.57828 29.2994L6.50475 27.19C6.64696 26.8664 6.62692 26.4945 6.45087 26.188C5.84413 25.1314 5.37188 23.9886 5.04725 22.7915C4.95477 22.4506 4.70606 22.1737 4.3769 22.0455L2.22656 21.2077V16.7923L4.37705 15.9544C4.70621 15.8262 4.95492 15.5493 5.04739 15.2085C5.3721 14.0113 5.84428 12.8685 6.45102 11.8118C6.62707 11.5053 6.64703 11.1334 6.5049 10.8097L5.57843 8.70044L8.70059 5.57828L10.81 6.50475C11.1336 6.64688 11.5055 6.62692 11.8121 6.45087C12.8686 5.84413 14.0114 5.37188 15.2086 5.04725C15.5495 4.95477 15.8263 4.70606 15.9546 4.3769L16.7923 2.22656H21.2077L22.0456 4.37705C22.1738 4.70621 22.4507 4.95492 22.7915 5.04739C23.9887 5.37203 25.1314 5.84428 26.1881 6.45102C26.4946 6.62707 26.8666 6.64703 27.1902 6.5049L29.2996 5.57843L32.4217 8.70059L31.4952 10.8099C31.353 11.1336 31.373 11.5055 31.5491 11.812C32.1558 12.8686 32.628 14.0114 32.9527 15.2086C33.0452 15.5495 33.2939 15.8263 33.623 15.9546L35.7734 16.7923V21.2077Z" fill="#18B9ED"/>
<path d="M19 6.75391C12.2475 6.75391 6.75391 12.2475 6.75391 19C6.75391 25.7525 12.2475 31.2461 19 31.2461C25.7525 31.2461 31.2461 25.7525 31.2461 19C31.2461 12.2475 25.7525 6.75391 19 6.75391ZM27.9062 20.1133H28.9573C28.743 22.043 27.9787 23.8088 26.8248 25.2504L26.0848 24.5105C25.6502 24.0757 24.9452 24.0757 24.5104 24.5105C24.0757 24.9453 24.0757 25.6501 24.5104 26.0849L25.2504 26.8248C23.8088 27.9787 22.043 28.7431 20.1133 28.9573V27.9062C20.1133 27.2914 19.6148 26.793 19 26.793C18.3852 26.793 17.8867 27.2914 17.8867 27.9062V28.9573C15.957 28.743 14.1912 27.9787 12.7496 26.8248L13.4896 26.0849C13.9243 25.6501 13.9243 24.9453 13.4896 24.5105C13.0549 24.0757 12.3499 24.0757 11.9152 24.5105L11.1752 25.2504C10.0213 23.8088 9.25693 22.043 9.04266 20.1133H10.0938C10.7086 20.1133 11.207 19.6148 11.207 19C11.207 18.3852 10.7086 17.8867 10.0938 17.8867H9.04266C9.25701 15.957 10.0213 14.1912 11.1752 12.7496L11.9152 13.4895C12.3499 13.9243 13.0548 13.9243 13.4896 13.4895C13.9243 13.0547 13.9243 12.3499 13.4896 11.9151L12.7496 11.1752C14.1912 10.0213 15.957 9.25693 17.8867 9.04266V10.0938C17.8867 10.7086 18.3852 11.207 19 11.207C19.6148 11.207 20.1133 10.7086 20.1133 10.0938V9.04266C22.043 9.25701 23.8088 10.0213 25.2504 11.1752L24.5105 11.9151C24.0757 12.3499 24.0757 13.0547 24.5105 13.4895C24.9453 13.9243 25.6501 13.9243 26.0849 13.4895L26.8249 12.7496C27.9787 14.1912 28.7431 15.957 28.9573 17.8867H27.9062C27.2914 17.8867 26.793 18.3852 26.793 19C26.793 19.6148 27.2914 20.1133 27.9062 20.1133Z" fill="#18B9ED"/>
<path d="M22.7109 17.8867H20.1133V15.2891C20.1133 14.6742 19.6148 14.1758 19 14.1758C18.3852 14.1758 17.8867 14.6742 17.8867 15.2891V19C17.8867 19.6148 18.3852 20.1133 19 20.1133H22.7109C23.3258 20.1133 23.8242 19.6148 23.8242 19C23.8242 18.3852 23.3258 17.8867 22.7109 17.8867Z" fill="#18B9ED"/>
</svg>
