<svg width="68" height="68" viewBox="0 0 68 68" fill="none" xmlns="http://www.w3.org/2000/svg">
<g clip-path="url(#clip0)">
<path d="M68 50.1922C68 41.7394 61.1233 34.8633 52.6711 34.8633C50.5912 34.8633 48.6073 35.2804 46.7972 36.0342L43.3207 30.0125C43.3809 29.9669 43.4401 29.9207 43.4997 29.874C43.5827 29.818 43.66 29.7536 43.7342 29.6846C47.1484 26.8712 49.3284 22.6118 49.3284 17.8524C49.3284 9.3996 42.4523 2.52344 34 2.52344C25.5477 2.52344 18.6711 9.3996 18.6711 17.8524C18.6711 22.6108 20.8505 26.8696 24.2637 29.6831C24.3389 29.7526 24.4173 29.8185 24.5018 29.875C24.5605 29.9212 24.6196 29.9669 24.6787 30.0125L21.2023 36.0337C19.3922 35.2804 17.4083 34.8633 15.3284 34.8633C6.87616 34.8633 0 41.7394 0 50.1922C0 54.9507 2.17999 59.21 5.59317 62.024C5.66788 62.093 5.7457 62.1578 5.82974 62.2144C8.44293 64.2833 11.744 65.5207 15.3284 65.5207C18.9138 65.5207 22.2155 64.2828 24.8292 62.2128C24.9117 62.1573 24.9885 62.0935 25.0616 62.0255C27.9923 59.611 30.0135 56.1309 30.5277 52.1844H37.4713C37.9859 56.1304 40.0067 59.6095 42.9358 62.024C43.0105 62.093 43.0883 62.1578 43.1713 62.2138C45.785 64.2833 49.0862 65.5207 52.6711 65.5207C56.2565 65.5207 59.5581 64.2828 62.1718 62.2128C62.2538 62.1573 62.33 62.0935 62.4032 62.026C65.819 59.2126 68 54.9522 68 50.1922ZM22.6554 17.8524C22.6554 11.5972 27.7448 6.50781 34 6.50781C40.2552 6.50781 45.3441 11.5972 45.3441 17.8524C45.3441 20.5133 44.4211 22.9615 42.8813 24.8982C41.9158 23.5389 40.6536 22.4251 39.2046 21.6349C39.9792 20.5719 40.4378 19.2651 40.4378 17.8524C40.4378 14.3028 37.5496 11.4146 34 11.4146C30.4499 11.4146 27.5622 14.3028 27.5622 17.8524C27.5622 19.2651 28.0208 20.5719 28.7949 21.6344C27.3459 22.4246 26.0836 23.5384 25.1187 24.8982C23.5789 22.9615 22.6554 20.5133 22.6554 17.8524ZM28.1262 32.0104C29.9362 32.7642 31.9201 33.1813 34 33.1813C36.0799 33.1813 38.0638 32.7642 39.8738 32.0104L43.3498 38.0316C40.1981 40.4539 38.0098 44.0709 37.4718 48.2H30.5282C29.9897 44.0709 27.8019 40.4539 24.6497 38.0316L28.1262 32.0104ZM24.2097 57.238C23.2448 55.8783 21.9825 54.7644 20.5335 53.9743C21.3076 52.9118 21.7662 51.6049 21.7662 50.1922C21.7662 46.6426 18.8786 43.7545 15.3284 43.7545C11.7788 43.7545 8.89066 46.6426 8.89066 50.1922C8.89066 51.6049 9.34927 52.9118 10.1238 53.9743C8.67484 54.7644 7.4126 55.8783 6.44711 57.238C4.90784 55.3008 3.98438 52.8531 3.98438 50.1922C3.98438 43.9366 9.07327 38.8477 15.3284 38.8477C21.5841 38.8477 26.673 43.9366 26.673 50.1922C26.673 52.8531 25.7501 55.3008 24.2097 57.238ZM41.3265 50.1922C41.3265 43.9366 46.4159 38.8477 52.6711 38.8477C58.9267 38.8477 64.0156 43.9366 64.0156 50.1922C64.0156 52.8531 63.0922 55.3008 61.5524 57.238C60.5869 55.8783 59.3252 54.7644 57.8762 53.9743C58.6502 52.9118 59.1088 51.6049 59.1088 50.1922C59.1088 46.6426 56.2207 43.7545 52.6711 43.7545C49.1214 43.7545 46.2333 46.6426 46.2333 50.1922C46.2333 51.6049 46.6919 52.9118 47.4659 53.9743C46.0169 54.7644 44.7552 55.8783 43.7897 57.238C42.2499 55.3008 41.3265 52.8531 41.3265 50.1922Z" fill="#18B9ED"/>
</g>
<defs>
<clipPath id="clip0">
<rect width="68" height="68" fill="white"/>
</clipPath>
</defs>
</svg>
