<svg width="51" height="51" viewBox="0 0 51 51" fill="none" xmlns="http://www.w3.org/2000/svg">
<g clip-path="url(#clip0)">
<path d="M45.5044 0H33.7034C31.1128 0 27.6482 1.435 25.8167 3.26688L1.60464 27.4786C0.569641 28.5132 0 29.8929 0 31.3641C0 32.8353 0.57003 34.215 1.60464 35.2497L15.75 49.3954C16.7846 50.43 18.1643 51 19.6355 51C21.1063 51 22.4864 50.43 23.5214 49.3954L47.7331 25.1833C49.565 23.3518 51 19.8872 51 17.2966V5.49486C50.9996 2.46494 48.5343 0 45.5044 0ZM48.0117 17.2966C48.0117 19.0985 46.8942 21.7966 45.6203 23.0705L21.4082 47.2822C20.9378 47.7526 20.3083 48.0117 19.6355 48.0117C18.9627 48.0117 18.3336 47.7526 17.8632 47.2825L3.71784 33.1365C3.24742 32.666 2.98828 32.0365 2.98828 31.3641C2.98828 30.6914 3.24703 30.0618 3.71745 29.5918L27.9295 5.37968C29.2034 4.10577 31.9015 2.98828 33.7034 2.98828H45.5044C46.8868 2.98828 48.0113 4.11278 48.0117 5.49486V17.2966Z" fill="white"/>
<path d="M13.8762 33.0197C13.333 32.4769 13.4688 31.6847 14.2832 30.8695C15.2341 29.919 15.9244 30.0886 16.2754 29.7381C16.6828 29.3307 16.3431 28.6287 16.0828 28.3688C15.3357 27.6217 13.6949 28.9458 13.0272 29.6135C11.7256 30.9151 10.8544 32.9407 12.5404 34.6271C15.2225 37.3091 18.3349 33.1559 20.0325 34.8535C20.7115 35.5325 20.4286 36.4263 19.7496 37.1056C18.5952 38.2597 17.4181 37.694 16.9543 38.1578C16.6034 38.5087 16.7847 39.2784 17.1014 39.5955C17.7578 40.2519 19.6364 39.8671 21.1189 38.3842C22.6807 36.8228 22.9749 34.8531 21.3566 33.2349C18.4255 30.3042 15.2793 34.4236 13.8762 33.0197Z" fill="white"/>
<path d="M29.6968 28.154L20.3938 23.2198C19.9526 22.9821 19.3752 23.2424 18.9452 23.6727C18.5266 24.091 18.2662 24.6685 18.504 25.1101L23.4381 34.4127C23.472 34.4691 23.5062 34.5255 23.5288 34.5484C23.8911 34.9103 24.672 34.6274 25.0677 34.2313C25.3167 33.9827 25.4303 33.7107 25.2716 33.4391L24.1965 31.5041L26.7883 28.9124L28.7233 29.9878C28.9953 30.1458 29.2665 30.033 29.5155 29.7839C29.9116 29.3878 30.1832 28.5952 29.8322 28.2447C29.7987 28.2108 29.7532 28.1879 29.6968 28.154ZM23.3479 30.0442L20.858 25.5848L25.3171 28.075L23.3479 30.0442Z" fill="white"/>
<path d="M34.1664 22.5526L31.405 25.314L24.8751 18.7838C24.558 18.467 24.0491 18.7048 23.6868 19.0666C23.3137 19.4402 23.0868 19.9382 23.4039 20.2553L30.7599 27.6116C31.0657 27.9171 31.5408 27.7587 31.8692 27.4303L35.4567 23.8428C35.7508 23.5487 35.5699 23.0732 35.2528 22.7565C34.9248 22.4281 34.461 22.258 34.1664 22.5526Z" fill="white"/>
<path d="M40.0851 16.634L36.8824 19.8366L34.6077 17.562L36.3279 15.8418C36.6447 15.525 36.4863 15.0721 36.226 14.8118C35.9206 14.5064 35.4676 14.3935 35.1735 14.6877L33.4533 16.4075L31.1899 14.1441L34.3926 10.9418C34.6867 10.6473 34.5509 10.1722 34.2003 9.82123C33.8945 9.51578 33.4194 9.33446 33.1023 9.65119L29.0736 13.6803C28.7456 14.0083 28.5868 14.4838 28.8926 14.7892L36.2377 22.1339C36.5431 22.4397 37.0182 22.2813 37.3466 21.9529L41.3753 17.9242C41.6924 17.6075 41.5111 17.132 41.2057 16.8266C40.8547 16.4756 40.3792 16.3398 40.0851 16.634Z" fill="white"/>
<path d="M41.584 8.00842C41.1906 8.00842 40.805 8.16795 40.5272 8.44577C40.2494 8.72359 40.0898 9.10918 40.0898 9.50256C40.0898 9.89633 40.2494 10.2808 40.5272 10.5586C40.805 10.8376 41.1906 10.9967 41.584 10.9967C41.9774 10.9967 42.3618 10.8376 42.64 10.5586C42.9186 10.2808 43.0781 9.89516 43.0781 9.50256C43.0781 9.10918 42.9186 8.72359 42.64 8.44577C42.3618 8.16795 41.9774 8.00842 41.584 8.00842Z" fill="white"/>
</g>
<defs>
<clipPath id="clip0">
<rect width="51" height="51" fill="white"/>
</clipPath>
</defs>
</svg>
