<svg width="23" height="35" viewBox="0 0 23 35" fill="none" xmlns="http://www.w3.org/2000/svg">
<path d="M22.1032 16.3084C22.5024 13.6768 22.2055 8.88265 20.8643 6.64729C20.8589 6.63796 20.8567 6.62714 20.858 6.61645C20.8593 6.60576 20.864 6.59577 20.8714 6.58796C20.9513 6.49963 21.0135 6.39666 21.0543 6.28472C21.1021 6.134 21.118 5.97501 21.1012 5.8178C21.0843 5.6606 21.035 5.5086 20.9564 5.37144C19.5148 2.44811 14.9143 1.318 13.5372 1.04128C11.1843 0.576435 8.3966 0.740498 6.55937 2.2403C6.54315 2.25398 6.52391 2.26361 6.50324 2.2684C6.48256 2.27319 6.46105 2.273 6.44046 2.26785C6.41988 2.2627 6.40081 2.25273 6.38483 2.23876C6.36885 2.2248 6.35642 2.20724 6.34855 2.18753C6.25446 1.94545 6.07924 1.74355 5.85281 1.61632C5.67434 1.50534 5.46906 1.44496 5.25892 1.44164C5.04878 1.43831 4.8417 1.49217 4.6598 1.59745C4.16488 1.88675 3.86355 2.51565 3.71699 3.06417C3.71112 3.08821 3.69828 3.10998 3.68009 3.12676C3.6619 3.14355 3.63916 3.15459 3.61473 3.15851C2.86769 3.28511 1.6427 3.61788 1.48629 4.4505C1.43199 4.6438 1.4317 4.84828 1.48545 5.04174C1.5392 5.23519 1.64494 5.41022 1.79117 5.5478C1.94374 5.67734 2.12582 5.76739 2.32137 5.81003C2.34365 5.81503 2.36429 5.82564 2.38133 5.84085C2.39837 5.85605 2.41125 5.87536 2.41875 5.89693C2.42625 5.9185 2.42812 5.94163 2.42419 5.96413C2.42026 5.98662 2.41066 6.00775 2.39629 6.0255C1.23117 7.48647 -0.0255471 9.97776 0.263476 11.1473C0.290229 11.2755 0.343411 11.3967 0.419633 11.5033C0.495854 11.6098 0.593442 11.6993 0.706172 11.766C0.728291 11.7773 0.746851 11.7945 0.759788 11.8157C0.772725 11.8369 0.779532 11.8613 0.779453 11.8861C0.758671 12.7652 0.736797 14.6566 0.872695 16.336C0.117187 17.0997 0.194297 18.3488 0.620586 19.25C0.995317 19.9907 1.64017 20.5592 2.42199 20.8382C2.67682 20.9279 2.94479 20.9748 3.21496 20.9768C3.37164 20.9763 3.5277 20.957 3.67981 20.9194C4.03478 21.843 4.56244 22.6905 5.23457 23.4167C6.15441 24.386 7.54894 25.1738 9.38617 25.7682C9.35243 26.084 9.25153 26.3889 9.09024 26.6624C8.92894 26.936 8.71099 27.1718 8.45102 27.3542C8.27776 27.2792 8.08277 27.2715 7.90414 27.3326C7.88637 27.3383 7.24543 27.6517 7.24543 27.6517C7.18668 27.5808 7.11787 27.5189 7.04117 27.4679C6.92361 27.3924 6.79098 27.3435 6.65254 27.3246C6.51411 27.3057 6.37322 27.3173 6.23973 27.3585C5.41258 27.6117 3.88105 28.1977 2.91582 29.2794C2.77741 29.4359 2.69399 29.6333 2.67829 29.8416C2.66259 30.0499 2.71547 30.2576 2.82887 30.4331L2.96285 30.6414C2.25754 31.4706 1.71903 32.4282 1.37691 33.4617C1.31395 33.6376 1.30219 33.8278 1.34301 34.0102C1.39413 34.2195 1.51395 34.4057 1.68332 34.5389C1.8527 34.6722 2.06185 34.7448 2.27734 34.7452H20.6857C20.8223 34.7479 20.9581 34.7226 21.0846 34.6708C21.2111 34.6191 21.3256 34.5421 21.4212 34.4444C21.5404 34.3205 21.6233 34.1662 21.661 33.9985C21.6986 33.8307 21.6896 33.6558 21.6348 33.4928C21.2939 32.445 20.7543 31.4726 20.0456 30.6289L20.1719 30.432C20.2853 30.2566 20.3382 30.049 20.3225 29.8407C20.3069 29.6325 20.2235 29.4351 20.0852 29.2786C19.1197 28.1969 17.5882 27.6107 16.7611 27.3577C16.6276 27.3165 16.4867 27.305 16.3482 27.3239C16.2098 27.3428 16.0772 27.3917 15.9596 27.4671C15.8829 27.518 15.8141 27.58 15.7554 27.6509C15.7554 27.6509 15.1144 27.3375 15.0966 27.3317C14.9164 27.2702 14.7196 27.2787 14.5454 27.3555C14.2864 27.1721 14.0696 26.9355 13.9093 26.6616C13.7489 26.3877 13.6489 26.0828 13.6157 25.7671C15.4527 25.1738 16.8475 24.386 17.767 23.4156C18.438 22.6902 18.9647 21.8437 19.3191 20.9213C19.4725 20.9578 19.6297 20.9761 19.7875 20.976C20.0572 20.9738 20.3247 20.927 20.5791 20.8373C21.3612 20.5586 22.0064 19.9901 22.3813 19.2492C22.8122 18.3381 22.8874 17.0694 22.1032 16.3084ZM2.68914 20.0624C2.11601 19.8559 1.64203 19.4406 1.36215 18.8995C1.02801 18.1926 0.991914 17.2485 1.56941 16.8112C1.92168 16.5959 2.34165 16.5197 2.74711 16.5977C2.77309 16.8711 2.80371 17.1519 2.84035 17.438C2.62132 17.3599 2.38892 17.3263 2.15676 17.3392C2.04978 17.3502 1.95144 17.4029 1.88313 17.486C1.81482 17.569 1.78207 17.6757 1.79199 17.7828C1.80228 17.8901 1.85408 17.9893 1.93635 18.059C2.01863 18.1288 2.12488 18.1637 2.2325 18.1563C2.38256 18.1552 2.53085 18.1887 2.66589 18.2541C2.80093 18.3195 2.9191 18.4152 3.01125 18.5336C3.11029 19.0761 3.2414 19.6123 3.40391 20.1392C3.16248 20.1712 2.91692 20.1449 2.68777 20.0624H2.68914ZM6.05242 33.9235L3.5182 29.9879C3.50168 29.9633 3.49361 29.934 3.49519 29.9044C3.49676 29.8748 3.50791 29.8466 3.52695 29.8239C4.35984 28.8909 5.73441 28.3689 6.48008 28.1411C6.49963 28.1349 6.52032 28.1331 6.54065 28.1358C6.56098 28.1386 6.58045 28.1458 6.59766 28.157C6.6144 28.1674 6.62858 28.1815 6.63913 28.1981C6.64969 28.2148 6.65635 28.2336 6.65863 28.2532L7.40949 33.9232L6.05242 33.9235ZM7.50793 28.4031C7.70341 28.2652 7.92463 28.168 8.15844 28.1173C8.18387 28.1173 8.22734 28.166 8.31156 28.2609C8.86856 28.8898 9.32 29.3978 9.81984 30.0434C9.86155 30.0977 9.88137 30.1657 9.8754 30.2339C9.86942 30.3021 9.83809 30.3655 9.78758 30.4117C9.42055 30.7461 9.0364 31.0612 8.63668 31.3557C8.58239 31.3914 8.51716 31.4066 8.45267 31.3986C8.38818 31.3905 8.32866 31.3598 8.28477 31.3119C8.08792 31.0793 7.92245 30.8219 7.79258 30.5463L7.50793 28.4031ZM16.3446 28.2535C16.3469 28.2339 16.3536 28.2151 16.3641 28.1984C16.3747 28.1818 16.3888 28.1677 16.4056 28.1573C16.4227 28.1459 16.4422 28.1387 16.4626 28.1359C16.4829 28.1332 16.5036 28.135 16.5232 28.1414C17.2683 28.3692 18.6429 28.8912 19.4763 29.8241C19.4953 29.8468 19.5065 29.8751 19.5081 29.9047C19.5096 29.9343 19.5016 29.9636 19.485 29.9882L16.9533 33.9238H15.5943L16.3446 28.2535ZM14.6936 28.2609C14.7778 28.166 14.8213 28.1184 14.8467 28.1173C15.0805 28.1681 15.3017 28.2654 15.4972 28.4033L15.2134 30.5471C15.0839 30.823 14.9184 31.0804 14.7212 31.3127C14.6773 31.3606 14.6178 31.3914 14.5533 31.3994C14.4888 31.4074 14.4236 31.3922 14.3693 31.3565C13.9696 31.062 13.5854 30.7469 13.2184 30.4126C13.1679 30.3664 13.1366 30.3029 13.1306 30.2347C13.1246 30.1665 13.1444 30.0985 13.1861 30.0442C13.6827 29.3978 14.1341 28.889 14.6911 28.2609H14.6936ZM13.9157 27.9019C13.3743 28.5133 12.8971 29.0615 12.3675 29.7626C12.293 29.8691 12.2442 29.9914 12.2248 30.1199C12.2054 30.2484 12.216 30.3796 12.2556 30.5033C12.2616 30.522 12.2634 30.5418 12.2607 30.5612C12.2581 30.5807 12.2513 30.5993 12.2406 30.6157C12.012 30.9541 11.8061 31.3073 11.6243 31.6728C11.6128 31.6952 11.5954 31.714 11.5739 31.7272C11.5524 31.7403 11.5277 31.7472 11.5026 31.7472C11.4774 31.7472 11.4527 31.7403 11.4313 31.7272C11.4098 31.714 11.3924 31.6952 11.3809 31.6728C11.199 31.3073 10.9931 30.9541 10.7646 30.6157C10.7539 30.5993 10.747 30.5807 10.7444 30.5612C10.7418 30.5418 10.7436 30.522 10.7495 30.5033C10.7892 30.3796 10.7998 30.2484 10.7804 30.1199C10.761 29.9914 10.7121 29.8691 10.6377 29.7626C10.1075 29.0607 9.6298 28.5122 9.08785 27.9C9.68009 27.4299 10.0712 26.752 10.1816 26.0039C10.2866 26.0326 10.3913 26.0616 10.4988 26.0892C11.1574 26.2584 11.848 26.2584 12.5066 26.0892C12.616 26.0619 12.7205 26.0324 12.826 26.0031C12.9348 26.7509 13.3234 27.4295 13.9132 27.9019H13.9157ZM17.1712 22.852C16.1825 23.8944 14.5443 24.716 12.304 25.2941C11.7775 25.4294 11.2252 25.4294 10.6987 25.2941C8.45648 24.716 6.81887 23.8944 5.83148 22.852C4.1441 21.0747 3.62102 18.3707 3.53789 16.2244C3.48758 14.9221 4.06453 14.1441 4.77574 13.0728C5.94147 11.4475 6.74061 9.58852 7.11801 7.62429C7.13191 7.55196 7.16394 7.48435 7.2111 7.42778C7.25825 7.3712 7.31898 7.32752 7.38762 7.30081C8.50406 6.89585 9.0184 7.96417 9.73344 9.76995C9.87945 10.1391 10.0304 10.5205 10.1904 10.8653C11.2732 13.2002 13.6507 14.554 17.2565 14.8887C17.6103 14.9367 17.9696 14.8554 18.2682 14.6598C18.2741 14.655 18.281 14.6516 18.2884 14.6498C18.2958 14.648 18.3035 14.6479 18.3109 14.6494C18.3183 14.651 18.3253 14.6542 18.3314 14.6588C18.3374 14.6633 18.3424 14.6692 18.3459 14.676C18.653 15.2811 19.0234 15.8519 19.4509 16.3789C19.2575 18.4921 18.8187 21.1154 17.1712 22.852ZM21.6395 18.8995C21.3596 19.4406 20.8856 19.8559 20.3125 20.0624C20.0833 20.1446 19.8378 20.1709 19.5963 20.1392C19.7598 19.6112 19.8917 19.074 19.9914 18.5303C20.0831 18.4135 20.2002 18.319 20.3338 18.254C20.4674 18.1891 20.614 18.1554 20.7625 18.1555C20.8708 18.1663 20.9789 18.1338 21.0631 18.0649C21.1474 17.9961 21.2008 17.8966 21.2117 17.7884C21.2225 17.6801 21.19 17.572 21.1211 17.4878C21.0523 17.4036 20.9528 17.3501 20.8446 17.3392C20.6125 17.326 20.3801 17.3591 20.161 17.4366C20.1973 17.1509 20.2277 16.8706 20.2537 16.598C20.6591 16.52 21.079 16.5961 21.4314 16.8112C22.0097 17.2485 21.9728 18.1926 21.6395 18.8995Z" fill="white"/>
</svg>
