<svg width="71" height="71" viewBox="0 0 71 71" fill="none" xmlns="http://www.w3.org/2000/svg">
<g clip-path="url(#clip0)">
<path d="M46.0054 38.447L40.059 44.4135C37.6476 46.8333 33.4048 46.8854 30.9413 44.4135L24.9947 38.447L3.63696 59.874C4.43197 60.2416 5.30851 60.461 6.24039 60.461H64.7599C65.6918 60.461 66.5681 60.2419 67.3628 59.8741L46.0054 38.447Z" fill="white"/>
<path d="M64.7598 10.5391H6.24023C5.30836 10.5391 4.43181 10.7584 3.63708 11.1261L26.4593 34.024C26.4608 34.0255 26.4626 34.0258 26.4641 34.0273C26.4657 34.0288 26.4659 34.0309 26.4659 34.0309L33.8867 41.4762C34.6749 42.2644 36.3254 42.2644 37.1136 41.4762L44.5328 34.0322C44.5328 34.0322 44.5346 34.0288 44.5361 34.0273C44.5361 34.0273 44.5395 34.0255 44.541 34.024L67.3626 11.1259C66.5679 10.7582 65.6916 10.5391 64.7598 10.5391Z" fill="white"/>
<path d="M0.663684 14.0353C0.252383 14.867 0 15.7903 0 16.7793V54.2207C0 55.2097 0.252105 56.133 0.663545 56.9648L22.0583 35.5007L0.663684 14.0353Z" fill="white"/>
<path d="M70.3364 14.035L48.942 35.5007L70.3364 56.9651C70.7477 56.1333 71.0001 55.21 71.0001 54.2208V16.7794C71.0001 15.7901 70.7477 14.8668 70.3364 14.035Z" fill="white"/>
</g>
<defs>
<clipPath id="clip0">
<rect width="71" height="71" fill="white"/>
</clipPath>
</defs>
</svg>
