<svg width="35" height="35" viewBox="0 0 35 35" fill="none" xmlns="http://www.w3.org/2000/svg">
<path d="M16.4746 0C13.854 0.201073 11.4489 1.28254 9.46887 2.78484C11.3074 4.6455 13.7592 5.87997 16.4746 6.13018V0Z" fill="white"/>
<path d="M16.4746 8.1807C13.1557 7.92222 10.158 6.41885 7.93636 4.13388C5.8335 6.30376 4.46658 9.18179 4.22198 12.3731H16.4746V8.1807Z" fill="white"/>
<path d="M18.5254 0V6.14433C21.2325 5.89813 23.7047 4.69036 25.5557 2.803C23.5709 1.29028 21.1567 0.201874 18.5254 0Z" fill="white"/>
<path d="M12.3731 20.5762H16.4746V14.4238H4.25671C4.31012 15.1168 4.4196 15.7998 4.56593 16.4746H11.3477C11.9143 16.4746 12.3731 16.9334 12.3731 17.5V20.5762Z" fill="white"/>
<path d="M18.5254 20.5762H22.627V17.5C22.627 16.9334 23.0857 16.4746 23.6523 16.4746H30.4341C30.5804 15.7998 30.6902 15.1168 30.7433 14.4238H18.5254V20.5762Z" fill="white"/>
<path d="M18.5254 8.19537V12.373H30.778C30.5342 9.19326 29.1756 6.3251 27.0855 4.1579C24.8492 6.4725 21.8312 7.94116 18.5254 8.19537Z" fill="white"/>
<path d="M0 21.6016V29.873C0 30.4397 0.458756 30.8984 1.02539 30.8984H4.16992V20.5762H1.02539C0.458756 20.5762 0 21.0349 0 21.6016Z" fill="white"/>
<path d="M12.373 22.627H22.627V28.8477H12.373V22.627Z" fill="white"/>
<path d="M9.29688 18.5254H7.24609C6.67973 18.5254 6.2207 18.9844 6.2207 19.5508V33.9746C6.2207 34.541 6.67973 35 7.24609 35H9.29688C9.86324 35 10.3223 34.541 10.3223 33.9746C10.3223 28.5977 10.3223 24.866 10.3223 19.5508C10.3223 18.9844 9.86324 18.5254 9.29688 18.5254Z" fill="white"/>
<path d="M27.7539 18.5254H25.7031C25.1368 18.5254 24.6777 18.9844 24.6777 19.5508V33.9746C24.6777 34.541 25.1368 35 25.7031 35H27.7539C28.3203 35 28.7793 34.541 28.7793 33.9746V19.5508C28.7793 18.9844 28.3203 18.5254 27.7539 18.5254Z" fill="white"/>
<path d="M33.9746 20.5762H30.8301V30.8984H33.9746C34.5412 30.8984 35 30.4397 35 29.873V21.6016C35 21.0349 34.5412 20.5762 33.9746 20.5762Z" fill="white"/>
</svg>
