<svg width="35" height="35" viewBox="0 0 35 35" fill="none" xmlns="http://www.w3.org/2000/svg">
<g clip-path="url(#clip0)">
<path d="M17.4996 8.75018C19.9158 8.75018 21.8745 6.79146 21.8745 4.37526C21.8745 1.95906 19.9158 0.000335693 17.4996 0.000335693C15.0834 0.000335693 13.1247 1.95906 13.1247 4.37526C13.1247 6.79146 15.0834 8.75018 17.4996 8.75018Z" fill="white"/>
<path d="M24.0537 20.6412L23.0606 12.9064C22.9491 11.7842 22.0128 10.9377 20.8863 10.9377H19.6876C19.3966 10.9377 19.1188 11.0536 18.9132 11.257L17.5001 12.6701L16.087 11.257C15.8814 11.0536 15.6036 10.9377 15.3126 10.9377H14.1161C12.9874 10.9377 12.0511 11.7842 11.9417 12.8779L10.9465 20.6434C10.9071 20.954 11.0033 21.269 11.2111 21.5031C11.4189 21.7393 11.7164 21.875 12.0314 21.875H13.2127L14.127 33.031C14.2364 34.151 15.1748 34.9997 16.3035 34.9997H18.6988C19.8275 34.9997 20.7638 34.151 20.8775 33.0113L21.7897 21.875H22.9687C23.2837 21.875 23.5812 21.7393 23.789 21.5031C23.999 21.269 24.0953 20.954 24.0537 20.6412Z" fill="white"/>
<path d="M28.4369 8.75018C30.8531 8.75018 32.8119 6.79146 32.8119 4.37526C32.8119 1.95906 30.8531 0.000335693 28.4369 0.000335693C26.0207 0.000335693 24.062 1.95906 24.062 4.37526C24.062 6.79146 26.0207 8.75018 28.4369 8.75018Z" fill="white"/>
<path d="M6.5623 0.000335693C4.14953 0.000335693 2.18738 1.96249 2.18738 4.37526C2.18738 6.78803 4.14953 8.75018 6.5623 8.75018C8.97288 8.75018 10.9372 6.78803 10.9372 4.37526C10.9372 1.96249 8.97288 0.000335693 6.5623 0.000335693Z" fill="white"/>
<path d="M34.991 20.6412L33.9979 12.9086C33.8863 11.7842 32.9523 10.9377 31.8236 10.9377H30.6248C30.3339 10.9377 30.0561 11.0536 29.8505 11.257L28.4374 12.6701L27.0243 11.257C26.8187 11.0536 26.5409 10.9377 26.2521 10.9377H25.0534C24.9178 10.9377 24.7953 10.9858 24.6662 11.0098C24.9484 11.5086 25.1693 12.0489 25.2349 12.6548L26.2259 20.3634C26.3484 21.3018 26.0552 22.2468 25.4253 22.9578C25.1278 23.299 24.7471 23.5396 24.3403 23.7277L25.0665 30.8436C25.1781 31.9657 26.1143 32.8123 27.243 32.8123H29.6383C30.767 32.8123 31.7033 31.9635 31.817 30.8239L32.727 21.875H33.906C34.221 21.875 34.5185 21.7393 34.7263 21.5031C34.9363 21.269 35.0326 20.954 34.991 20.6412Z" fill="white"/>
<path d="M9.56829 22.9468C8.94705 22.2446 8.65831 21.3018 8.77643 20.3678L9.77172 12.6001C9.8286 12.0183 10.043 11.4933 10.3164 11.0077C10.1939 10.9858 10.078 10.9377 9.94891 10.9377H8.75018C8.45925 10.9377 8.18144 11.0536 7.97582 11.257L6.56272 12.6701L5.14962 11.257C4.944 11.0536 4.66619 10.9377 4.37744 10.9377H3.17865C2.04992 10.9377 1.11368 11.7842 1.00431 12.8779L0.00901471 20.6434C-0.0303596 20.954 0.0658887 21.269 0.273698 21.5031C0.481506 21.7393 0.781189 21.875 1.094 21.875H2.27523L3.18958 30.8436C3.29896 31.9635 4.23738 32.8123 5.36611 32.8123H7.76138C8.89011 32.8123 9.82634 31.9635 9.94009 30.8239L10.6663 23.7256C10.2573 23.5352 9.87454 23.2924 9.56829 22.9468Z" fill="white"/>
</g>
<defs>
<clipPath id="clip0">
<rect width="35" height="35" fill="white"/>
</clipPath>
</defs>
</svg>
