<svg width="35" height="35" viewBox="0 0 35 35" fill="none" xmlns="http://www.w3.org/2000/svg">
<g clip-path="url(#clip0)">
<path d="M31.4618 9.16405C29.0164 3.34018 26.1779 0 23.6743 0C22.0929 0 20.378 1.33308 18.7129 3.78239C19.1898 4.57495 19.6553 5.44236 20.108 6.38176C20.4001 5.88294 20.6946 5.42097 20.9891 5.00329C22.0187 3.54313 22.7904 2.96563 23.1587 2.7514C23.4775 2.56607 23.8711 2.56607 24.1898 2.7514C24.5582 2.9657 25.33 3.5432 26.3594 5.00329C27.4361 6.53037 28.5134 8.63099 29.4748 11.0781C31.42 16.0295 32.4377 21.163 32.4377 23.6751C32.4377 28.5073 28.5065 32.4386 23.6742 32.4386C22.9691 32.4386 22.2834 32.3544 21.6262 32.1964C21.0071 32.9435 20.3085 33.6223 19.5435 34.2199C20.824 34.7233 22.2174 35 23.6743 35C29.9188 35 34.9992 29.9197 34.9992 23.6751C34.9992 20.6503 33.7841 14.6945 31.4618 9.16405Z" fill="white"/>
<path d="M22.9148 30.3447C23.1642 30.3729 23.4174 30.3879 23.6742 30.3879C27.3756 30.3879 30.3869 27.3766 30.3869 23.6751C30.3869 21.3561 29.418 16.542 27.566 11.828C26.6637 9.53135 25.6669 7.58004 24.6834 6.18509C24.2742 5.60479 23.9309 5.21412 23.6743 4.95832C23.4176 5.21412 23.0743 5.60472 22.6651 6.18509C22.1608 6.90034 21.6531 7.76269 21.1564 8.74201C23.2188 13.7815 24.6996 19.9996 24.6996 23.6752C24.6996 26.1022 24.0496 28.3802 22.9148 30.3447Z" fill="white"/>
<path d="M22.6497 23.6751C22.6497 20.6503 21.4347 14.6945 19.1124 9.16399C17.6288 5.63084 16.0005 3.01213 14.3902 1.49845C14.6147 2.1119 14.8355 2.8091 15.0512 3.58751C15.7997 6.28894 16.5012 10.0242 17.0265 14.1054C17.0989 14.6671 16.7021 15.1811 16.1405 15.2533C16.0961 15.259 16.0519 15.2618 16.0083 15.2618C15.5002 15.2619 15.0592 14.8844 14.9926 14.3672C14.5146 10.6535 13.8825 7.20126 13.2126 4.64626C12.2918 1.13355 11.5646 0.251162 11.3272 0.0449905C11.008 0.33251 9.73861 1.91462 8.38346 9.57928C8.28488 10.137 7.75305 10.5092 7.19517 10.4105C6.63749 10.3119 6.26534 9.77984 6.36398 9.22217C6.90737 6.149 7.53149 3.56495 8.16881 1.74933C8.19779 1.66668 8.22773 1.58335 8.25809 1.49981C6.64822 3.0137 5.02052 5.63193 3.53732 9.16399C1.21502 14.6945 0 20.6503 0 23.6751C0 28.5011 3.03468 32.6309 7.29559 34.2586C7.02994 33.8259 6.78029 33.3463 6.54931 32.8205C5.46861 30.3607 4.87348 27.1128 4.87348 23.6751C4.87348 23.1088 5.33258 22.6497 5.89887 22.6497C6.46516 22.6497 6.92426 23.1088 6.92426 23.6751C6.92426 26.8352 7.45794 29.7901 8.42687 31.9956C9.25333 33.8769 10.3367 35 11.3248 35C12.7831 35 14.3055 32.6945 15.113 29.2632C15.2426 28.712 15.7946 28.3702 16.346 28.5C16.8972 28.6297 17.2389 29.1817 17.1092 29.733C16.6817 31.5498 16.0836 33.076 15.359 34.2568C19.6174 32.6278 22.6497 28.4992 22.6497 23.6751Z" fill="white"/>
</g>
<defs>
<clipPath id="clip0">
<rect width="35" height="35" fill="white"/>
</clipPath>
</defs>
</svg>
