<svg width="35" height="35" viewBox="0 0 35 35" fill="none" xmlns="http://www.w3.org/2000/svg">
<g clip-path="url(#clip0)">
<path d="M0.00454393 7.28938C-0.0244127 7.02449 0.060724 6.75979 0.238674 6.56144C0.416624 6.36309 0.670572 6.24985 0.937044 6.25H4.99954C5.34472 6.25 5.62454 5.97018 5.62454 5.625C5.62454 5.27983 5.34472 5 4.99954 5H2.18704C1.92061 5.00064 1.66649 4.88787 1.48819 4.68989C1.30989 4.49191 1.22425 4.22742 1.25267 3.9625C1.33265 3.4644 1.77234 3.1047 2.27642 3.125H6.24954C6.59472 3.125 6.87454 2.84518 6.87454 2.5C6.87454 2.15482 6.59472 1.875 6.24954 1.875H3.43704C3.17061 1.87563 2.91649 1.76287 2.73819 1.56489C2.55989 1.36691 2.47425 1.10242 2.50267 0.837502C2.58239 0.339246 3.02225 -0.0205896 3.52642 1.51759e-06H12.782C12.896 0.000866049 13.0075 0.0328519 13.1045 0.0925016L15.632 1.60625C15.9229 1.78065 16.2554 1.87349 16.5945 1.875H22.4995V7.43063L21.417 6.54438C20.6047 5.92437 19.4621 5.98718 18.7227 6.6925C18.1736 7.22499 17.9828 8.02734 18.2333 8.75001H16.1377C15.6458 8.75208 15.1744 8.94736 14.8252 9.29376L8.9433 15.1275L8.93079 15.14L8.67079 15.3975C8.36592 15.6956 7.8778 15.6922 7.57704 15.39C7.30254 15.1144 7.27576 14.6777 7.51454 14.3706L9.2333 12.2706C9.38613 12.0837 9.41763 11.8255 9.31422 11.6073C9.21081 11.3891 8.99099 11.25 8.74955 11.25H1.65142C1.14815 11.2697 0.709466 10.9104 0.629544 10.4131C0.600969 10.1484 0.686278 9.88408 0.864185 9.68602C1.04209 9.48797 1.29582 9.37489 1.56204 9.37501H4.99954C5.34472 9.37501 5.62454 9.09518 5.62454 8.75001C5.62454 8.40483 5.34472 8.12501 4.99954 8.12501H1.02642C0.523654 8.14447 0.0852887 7.786 0.00454393 7.28938ZM10.407 34.37C10.1439 34.3984 9.88117 34.3129 9.68517 34.135C9.48826 33.9565 9.37552 33.7033 9.37455 33.4375V33.4281V30C9.37455 29.6548 9.09472 29.375 8.74955 29.375C8.40437 29.375 8.12455 29.6548 8.12455 30V33.4375V33.4463V33.9744C8.14171 34.4794 7.77939 34.9179 7.28017 34.9963C7.01757 35.0249 6.75534 34.9393 6.56017 34.7613C6.36281 34.5825 6.25002 34.3288 6.24954 34.0625V32.8125V32.8V30C6.24954 29.6548 5.96972 29.375 5.62454 29.375C5.27937 29.375 4.99954 29.6548 4.99954 30V32.8125V32.82C4.99788 33.085 4.88412 33.337 4.68642 33.5135C4.48872 33.69 4.22555 33.7745 3.96204 33.7463C3.46403 33.6666 3.10428 33.2271 3.12454 32.7231V31.5625V31.5531V28.75C3.12454 28.4048 2.84472 28.125 2.49954 28.125C2.15437 28.125 1.87454 28.4048 1.87454 28.75V31.5625V31.5681C1.87339 31.8334 1.75994 32.0857 1.56232 32.2626C1.3647 32.4395 1.1014 32.5244 0.837669 32.4963C0.339805 32.4166 -0.0200712 31.9776 -0.000456085 31.4738V22.2181C0.000507046 22.1055 0.0299641 21.995 0.0851689 21.8969L1.60579 19.3681C1.77983 19.0773 1.87264 18.7452 1.87454 18.4063V12.5H7.42954L6.54267 13.5831C5.9709 14.2786 5.93024 15.2691 6.44307 16.0091C6.95591 16.7491 7.89762 17.0587 8.74955 16.7675V18.8625C8.75162 19.3544 8.9469 19.8258 9.29329 20.175L15.122 26.05C15.1289 26.0575 15.1358 26.0644 15.1433 26.0713L15.3977 26.3275C15.6167 26.5504 15.6804 26.8831 15.5592 27.1711C15.4381 27.4591 15.1558 27.6463 14.8433 27.6456C14.6732 27.6464 14.5079 27.5893 14.3745 27.4838L12.2752 25.7656C12.0883 25.6096 11.8278 25.5762 11.6076 25.6802C11.3875 25.7842 11.2477 26.0065 11.2495 26.25V33.3481C11.2668 33.8526 10.9055 34.2908 10.407 34.37ZM34.9945 27.7106C35.0235 27.9755 34.9384 28.2402 34.7604 28.4386C34.5825 28.6369 34.3285 28.7502 34.062 28.75H29.9995C29.6544 28.75 29.3745 29.0298 29.3745 29.375C29.3745 29.7202 29.6544 30 29.9995 30H32.812C33.0785 29.9994 33.3326 30.1121 33.5109 30.3101C33.6892 30.5081 33.7748 30.7726 33.7464 31.0375C33.6664 31.5356 33.2267 31.8953 32.7227 31.875H28.7495C28.4044 31.875 28.1245 32.1548 28.1245 32.5C28.1245 32.8452 28.4044 33.125 28.7495 33.125H31.562C31.8285 33.1244 32.0826 33.2371 32.2609 33.4351C32.4392 33.6331 32.5248 33.8976 32.4964 34.1625C32.4167 34.6608 31.9768 35.0206 31.4727 35H22.217C22.1031 34.9992 21.9916 34.9672 21.8945 34.9075L19.367 33.3938C19.0762 33.2194 18.7437 33.1265 18.4045 33.125H12.4995V27.5681L13.582 28.4544C14.3936 29.0768 15.538 29.0139 16.2764 28.3063C16.8256 27.7744 17.0172 26.9727 16.7677 26.25H18.8614C19.3533 26.2479 19.8247 26.0527 20.1739 25.7063L26.0539 19.875L26.0758 19.8538L26.3302 19.6038C26.635 19.3057 27.1232 19.309 27.4239 19.6113C27.6984 19.8869 27.7252 20.3236 27.4864 20.6306L25.7677 22.7306C25.6158 22.9173 25.5846 23.1746 25.6875 23.3921C25.7903 23.6097 26.0089 23.7489 26.2495 23.75H33.3477C33.8509 23.7304 34.2896 24.0896 34.3695 24.5869C34.3981 24.8516 34.3128 25.1159 34.1349 25.314C33.957 25.5121 33.7033 25.6251 33.437 25.625H29.9995C29.6544 25.625 29.3745 25.9048 29.3745 26.25C29.3745 26.5952 29.6544 26.875 29.9995 26.875H33.9745C34.4766 26.8565 34.9139 27.2148 34.9945 27.7106ZM34.9995 12.7819C34.9986 12.8957 34.9668 13.0071 34.9077 13.1044L33.3933 15.6319C33.219 15.9226 33.1261 16.2548 33.1245 16.5938V22.5H27.5677L28.4545 21.4169C29.0983 20.6123 29.034 19.4522 28.3052 18.7238C27.7592 18.1999 26.9697 18.0179 26.2495 18.25V16.1375C26.2475 15.6456 26.0522 15.1742 25.7058 14.825L19.8745 8.94126L19.8627 8.92938L19.6045 8.66938C19.4581 8.52473 19.3763 8.32706 19.3777 8.12124C19.3791 7.91541 19.4636 7.71888 19.612 7.57626C19.8914 7.30972 20.3222 7.28332 20.632 7.51376L22.7314 9.23188C22.9181 9.38295 23.1749 9.41367 23.3919 9.31093C23.609 9.20819 23.748 8.99016 23.7495 8.75001V1.65188C23.7302 1.1485 24.0897 0.709901 24.587 0.630002C24.8516 0.601617 25.1158 0.687013 25.3137 0.864897C25.5117 1.04278 25.6246 1.29639 25.6245 1.5625V5C25.6245 5.34518 25.9044 5.625 26.2495 5.625C26.5947 5.625 26.8745 5.34518 26.8745 5V1.02688C26.8549 0.523406 27.2145 0.0846413 27.712 0.00500153C27.9766 -0.0233833 28.2408 0.0620123 28.4387 0.239897C28.6367 0.417782 28.7496 0.671394 28.7495 0.937502V5C28.7495 5.34518 29.0294 5.625 29.3745 5.625C29.7197 5.625 29.9995 5.34518 29.9995 5V2.1875C29.9991 1.92118 30.1119 1.66723 30.3099 1.48907C30.5079 1.3109 30.7722 1.22534 31.037 1.25375C31.5351 1.33344 31.8948 1.77294 31.8745 2.27688V6.25C31.8745 6.59518 32.1544 6.87501 32.4995 6.87501C32.8447 6.87501 33.1245 6.59518 33.1245 6.25V3.4375C33.1241 3.17118 33.2369 2.91723 33.4349 2.73907C33.6329 2.5609 33.8972 2.47534 34.162 2.50375C34.6597 2.58368 35.0192 3.02264 34.9995 3.52625V12.7819Z" fill="white"/>
</g>
<defs>
<clipPath id="clip0">
<rect width="35" height="35" fill="white"/>
</clipPath>
</defs>
</svg>
