<svg width="20" height="20" viewBox="0 0 20 20" fill="none" xmlns="http://www.w3.org/2000/svg">
<path d="M4.64249 6.57233C4.40374 4.99983 5.51249 3.58733 7.20624 3.06983C7.50681 2.97793 7.83111 3.00409 8.11306 3.14298C8.39501 3.28186 8.61341 3.52303 8.72374 3.81733L9.26749 5.26733C9.35502 5.5006 9.37085 5.7547 9.31294 5.99702C9.25503 6.23935 9.12603 6.45884 8.94249 6.62733L7.32499 8.10858C7.24526 8.18174 7.18585 8.27432 7.15255 8.37728C7.11925 8.48025 7.1132 8.59008 7.13499 8.69608L7.14999 8.76108L7.18874 8.92358C7.3899 9.71314 7.6964 10.472 8.09999 11.1798C8.53963 11.932 9.08522 12.6169 9.71999 13.2136L9.76999 13.2586C9.85074 13.3303 9.94868 13.3798 10.0543 13.4024C10.1599 13.4249 10.2695 13.4197 10.3725 13.3873L12.4637 12.7286C12.7014 12.654 12.9559 12.6521 13.1947 12.7231C13.4335 12.7941 13.6455 12.9349 13.8037 13.1273L14.7937 14.3286C15.2062 14.8286 15.1562 15.5636 14.6825 16.0048C13.3862 17.2136 11.6037 17.4611 10.3637 16.4648C8.84377 15.2388 7.56243 13.7435 6.58374 12.0536C5.5971 10.365 4.93807 8.50537 4.64124 6.57233H4.64249ZM8.44624 8.77858L9.78624 7.54858C10.1535 7.21175 10.4118 6.77283 10.5278 6.28817C10.6439 5.80351 10.6124 5.29523 10.4375 4.82858L9.89499 3.37858C9.67292 2.78639 9.23341 2.30115 8.66601 2.02175C8.09861 1.74235 7.44603 1.68981 6.84124 1.87483C4.73749 2.51858 3.04874 4.40483 3.40624 6.76108C3.65624 8.40608 4.23249 10.4986 5.50374 12.6836C6.55963 14.5057 7.94181 16.118 9.58124 17.4398C11.4412 18.9336 13.9237 18.4236 15.5362 16.9211C15.9976 16.4915 16.2777 15.902 16.3193 15.2729C16.3609 14.6439 16.1608 14.0227 15.76 13.5361L14.77 12.3336C14.4533 11.9492 14.029 11.6681 13.5515 11.5265C13.074 11.3848 12.5651 11.3891 12.09 11.5386L10.3537 12.0848C9.90545 11.6226 9.51278 11.1095 9.18374 10.5561C8.86589 9.99653 8.61819 9.39995 8.44624 8.77983V8.77858Z" fill="#6BDAD5"/>
</svg>
