<svg width="499" height="396" viewBox="0 0 499 396" fill="none" xmlns="http://www.w3.org/2000/svg">
<g filter="url(#filter0_dd_34_909)">
<path fill-rule="evenodd" clip-rule="evenodd" d="M27.7591 9.01316C28.397 9.65114 28.397 10.6855 27.7591 11.3235L17.4786 21.604L27.7591 31.8844C28.397 32.5224 28.397 33.5568 27.7591 34.1948C27.1211 34.8328 26.0867 34.8328 25.4487 34.1948L14.0131 22.7591C13.3751 22.1212 13.3751 21.0868 14.0131 20.4488L25.4487 9.01316C26.0867 8.37517 27.1211 8.37517 27.7591 9.01316Z" fill="#0A1811"/>
<path d="M174.051 12.0941H179.008L184.243 24.8664H184.466L189.701 12.0941H194.657V31.104H190.759V18.7309H190.601L185.682 31.0112H183.027L178.107 18.6844H177.949V31.104H174.051V12.0941ZM201.96 31.3732C201.051 31.3732 200.24 31.2154 199.528 30.8998C198.817 30.578 198.253 30.1046 197.839 29.4796C197.43 28.8484 197.226 28.0625 197.226 27.1219C197.226 26.3299 197.372 25.6646 197.663 25.1263C197.953 24.5879 198.349 24.1547 198.851 23.8268C199.352 23.4988 199.921 23.2513 200.559 23.0842C201.202 22.9171 201.877 22.7995 202.582 22.7315C203.411 22.6448 204.08 22.5644 204.587 22.4901C205.094 22.4097 205.463 22.2921 205.692 22.1374C205.921 21.9827 206.035 21.7538 206.035 21.4505V21.3948C206.035 20.807 205.849 20.3521 205.478 20.0304C205.113 19.7086 204.593 19.5477 203.919 19.5477C203.207 19.5477 202.641 19.7055 202.22 20.0211C201.799 20.3305 201.521 20.7203 201.385 21.1906L197.727 20.8936C197.913 20.0273 198.278 19.2785 198.823 18.6473C199.367 18.0099 200.07 17.5211 200.93 17.1807C201.796 16.8342 202.799 16.6609 203.937 16.6609C204.729 16.6609 205.487 16.7538 206.211 16.9394C206.942 17.125 207.588 17.4128 208.151 17.8026C208.721 18.1925 209.169 18.6937 209.497 19.3064C209.825 19.9128 209.989 20.6399 209.989 21.4877V31.104H206.239V29.1269H206.128C205.899 29.5724 205.593 29.9654 205.209 30.3057C204.825 30.6399 204.364 30.9029 203.826 31.0947C203.288 31.2804 202.666 31.3732 201.96 31.3732ZM203.093 28.6442C203.674 28.6442 204.188 28.5297 204.633 28.3008C205.079 28.0656 205.429 27.75 205.682 27.354C205.936 26.958 206.063 26.5093 206.063 26.0081V24.4951C205.939 24.5755 205.769 24.6498 205.552 24.7179C205.342 24.7797 205.104 24.8385 204.838 24.8942C204.572 24.9437 204.305 24.9901 204.039 25.0335C203.773 25.0706 203.532 25.1046 203.315 25.1356C202.851 25.2036 202.446 25.3119 202.099 25.4604C201.753 25.609 201.484 25.8101 201.292 26.0638C201.1 26.3113 201.004 26.6207 201.004 26.992C201.004 27.5304 201.199 27.9419 201.589 28.2265C201.985 28.505 202.486 28.6442 203.093 28.6442ZM213.057 31.104V16.8466H216.891V19.3342H217.039C217.299 18.4493 217.735 17.781 218.348 17.3293C218.96 16.8713 219.666 16.6424 220.464 16.6424C220.662 16.6424 220.876 16.6547 221.105 16.6795C221.334 16.7043 221.535 16.7383 221.708 16.7816V20.2903C221.522 20.2346 221.266 20.1851 220.938 20.1418C220.61 20.0984 220.309 20.0768 220.037 20.0768C219.456 20.0768 218.936 20.2036 218.478 20.4573C218.026 20.7049 217.667 21.0514 217.401 21.4969C217.141 21.9425 217.011 22.4561 217.011 23.0378V31.104H213.057ZM229.531 31.3825C228.07 31.3825 226.814 31.0731 225.762 30.4543C224.716 29.8293 223.912 28.9629 223.349 27.8552C222.792 26.7476 222.513 25.4728 222.513 24.031C222.513 22.5706 222.795 21.2896 223.358 20.1882C223.927 19.0805 224.735 18.2172 225.781 17.5984C226.826 16.9734 228.07 16.6609 229.512 16.6609C230.756 16.6609 231.845 16.8868 232.779 17.3385C233.714 17.7903 234.453 18.4245 234.998 19.2414C235.542 20.0582 235.842 21.0174 235.898 22.1189H232.167C232.061 21.4072 231.783 20.8348 231.331 20.4017C230.886 19.9623 230.301 19.7426 229.577 19.7426C228.964 19.7426 228.429 19.9097 227.971 20.2439C227.519 20.5718 227.167 21.0514 226.913 21.6826C226.659 22.3138 226.532 23.078 226.532 23.9753C226.532 24.8849 226.656 25.6585 226.904 26.2958C227.157 26.9332 227.513 27.419 227.971 27.7531C228.429 28.0873 228.964 28.2544 229.577 28.2544C230.029 28.2544 230.434 28.1616 230.793 27.9759C231.158 27.7903 231.458 27.5211 231.693 27.1684C231.935 26.8094 232.092 26.3794 232.167 25.8781H235.898C235.836 26.9672 235.539 27.9264 235.007 28.7556C234.481 29.5786 233.754 30.2222 232.826 30.6863C231.898 31.1504 230.799 31.3825 229.531 31.3825ZM242.384 22.8614V31.104H238.43V12.0941H242.273V19.362H242.44C242.762 18.5205 243.281 17.8614 243.999 17.3849C244.717 16.9023 245.617 16.6609 246.7 16.6609C247.69 16.6609 248.554 16.8775 249.29 17.3107C250.033 17.7377 250.608 18.3534 251.016 19.1578C251.431 19.9561 251.635 20.9122 251.629 22.026V31.104H247.675V22.7315C247.681 21.8528 247.458 21.169 247.007 20.6801C246.561 20.1913 245.936 19.9468 245.132 19.9468C244.593 19.9468 244.117 20.0613 243.702 20.2903C243.294 20.5192 242.972 20.8534 242.737 21.2927C242.508 21.7259 242.39 22.2488 242.384 22.8614ZM260.753 31.104V28.208L267.52 21.9425C268.096 21.3856 268.578 20.8843 268.968 20.4388C269.364 19.9932 269.664 19.557 269.869 19.13C270.073 18.6968 270.175 18.2296 270.175 17.7284C270.175 17.1715 270.048 16.6919 269.794 16.2896C269.541 15.8812 269.194 15.5687 268.755 15.3521C268.315 15.1294 267.817 15.018 267.26 15.018C266.679 15.018 266.171 15.1356 265.738 15.3707C265.305 15.6059 264.971 15.9431 264.736 16.3825C264.5 16.8218 264.383 17.3447 264.383 17.9512H260.568C260.568 16.7073 260.849 15.6275 261.413 14.7117C261.976 13.7958 262.765 13.0873 263.779 12.5861C264.794 12.0848 265.964 11.8342 267.288 11.8342C268.65 11.8342 269.835 12.0755 270.843 12.5582C271.858 13.0347 272.647 13.6968 273.21 14.5446C273.773 15.3924 274.055 16.3639 274.055 17.4592C274.055 18.177 273.913 18.8856 273.628 19.5848C273.349 20.2841 272.851 21.0607 272.133 21.9146C271.416 22.7624 270.404 23.7804 269.098 24.9685L266.323 27.6882V27.8181H274.305V31.104H260.753ZM284.671 31.5217C283.075 31.5155 281.701 31.1226 280.55 30.3429C279.405 29.5632 278.523 28.4338 277.905 26.9549C277.292 25.4759 276.989 23.6968 276.995 21.6176C276.995 19.5446 277.301 17.7779 277.914 16.3175C278.533 14.8571 279.415 13.7463 280.559 12.9852C281.71 12.2179 283.081 11.8342 284.671 11.8342C286.262 11.8342 287.629 12.2179 288.774 12.9852C289.925 13.7525 290.81 14.8664 291.429 16.3268C292.048 17.781 292.354 19.5446 292.348 21.6176C292.348 23.703 292.038 25.4852 291.419 26.9642C290.807 28.4431 289.928 29.5724 288.783 30.3521C287.639 31.1319 286.268 31.5217 284.671 31.5217ZM284.671 28.1894C285.76 28.1894 286.63 27.6418 287.28 26.5465C287.929 25.4512 288.251 23.8082 288.245 21.6176C288.245 20.1758 288.096 18.9753 287.799 18.0161C287.509 17.057 287.094 16.3361 286.556 15.8534C286.023 15.3707 285.395 15.1294 284.671 15.1294C283.588 15.1294 282.722 15.6708 282.072 16.7538C281.423 17.8367 281.095 19.458 281.088 21.6176C281.088 23.078 281.234 24.2971 281.525 25.2748C281.822 26.2463 282.239 26.9765 282.778 27.4654C283.316 27.9481 283.947 28.1894 284.671 28.1894ZM295.214 31.104V28.208L301.98 21.9425C302.556 21.3856 303.038 20.8843 303.428 20.4388C303.824 19.9932 304.124 19.557 304.329 19.13C304.533 18.6968 304.635 18.2296 304.635 17.7284C304.635 17.1715 304.508 16.6919 304.254 16.2896C304.001 15.8812 303.654 15.5687 303.215 15.3521C302.775 15.1294 302.277 15.018 301.72 15.018C301.139 15.018 300.631 15.1356 300.198 15.3707C299.765 15.6059 299.431 15.9431 299.196 16.3825C298.96 16.8218 298.843 17.3447 298.843 17.9512H295.028C295.028 16.7073 295.309 15.6275 295.873 14.7117C296.436 13.7958 297.225 13.0873 298.24 12.5861C299.254 12.0848 300.424 11.8342 301.748 11.8342C303.11 11.8342 304.295 12.0755 305.303 12.5582C306.318 13.0347 307.107 13.6968 307.67 14.5446C308.233 15.3924 308.515 16.3639 308.515 17.4592C308.515 18.177 308.373 18.8856 308.088 19.5848C307.809 20.2841 307.311 21.0607 306.594 21.9146C305.876 22.7624 304.864 23.7804 303.558 24.9685L300.783 27.6882V27.8181H308.766V31.104H295.214ZM311.678 31.104V28.208L318.445 21.9425C319.02 21.3856 319.503 20.8843 319.893 20.4388C320.289 19.9932 320.589 19.557 320.793 19.13C320.997 18.6968 321.099 18.2296 321.099 17.7284C321.099 17.1715 320.972 16.6919 320.719 16.2896C320.465 15.8812 320.118 15.5687 319.679 15.3521C319.24 15.1294 318.742 15.018 318.185 15.018C317.603 15.018 317.096 15.1356 316.662 15.3707C316.229 15.6059 315.895 15.9431 315.66 16.3825C315.425 16.8218 315.307 17.3447 315.307 17.9512H311.492C311.492 16.7073 311.774 15.6275 312.337 14.7117C312.9 13.7958 313.689 13.0873 314.704 12.5861C315.719 12.0848 316.888 11.8342 318.212 11.8342C319.574 11.8342 320.759 12.0755 321.768 12.5582C322.782 13.0347 323.571 13.6968 324.135 14.5446C324.698 15.3924 324.979 16.3639 324.979 17.4592C324.979 18.177 324.837 18.8856 324.552 19.5848C324.274 20.2841 323.776 21.0607 323.058 21.9146C322.34 22.7624 321.328 23.7804 320.023 24.9685L317.247 27.6882V27.8181H325.23V31.104H311.678Z" fill="#0A1811"/>
<path fill-rule="evenodd" clip-rule="evenodd" d="M471.241 34.1949C470.603 33.5569 470.603 32.5225 471.241 31.8845L481.521 21.604L471.241 11.3236C470.603 10.6856 470.603 9.6512 471.241 9.01322C471.879 8.37523 472.913 8.37523 473.551 9.01322L484.987 20.4489C485.625 21.0868 485.625 22.1212 484.987 22.7592L473.551 34.1949C472.913 34.8328 471.879 34.8328 471.241 34.1949Z" fill="#0A1811"/>
</g>
<g filter="url(#filter1_dd_34_909)">
<path d="M36.7515 82.7243C36.6958 82.1628 36.4568 81.7265 36.0345 81.4155C35.6121 81.1046 35.0389 80.9491 34.3149 80.9491C33.823 80.9491 33.4076 81.0187 33.0688 81.158C32.73 81.2925 32.4701 81.4805 32.2891 81.7218C32.1127 81.9632 32.0246 82.237 32.0246 82.5433C32.0153 82.7986 32.0687 83.0214 32.1847 83.2116C32.3053 83.4019 32.4701 83.5667 32.679 83.7059C32.8878 83.8405 33.1291 83.9589 33.403 84.061C33.6768 84.1584 33.9692 84.242 34.2801 84.3116L35.5611 84.6179C36.183 84.7571 36.7538 84.9428 37.2736 85.1748C37.7934 85.4069 38.2436 85.6923 38.6242 86.0311C39.0048 86.3699 39.2995 86.769 39.5083 87.2285C39.7218 87.688 39.8309 88.2147 39.8355 88.8088C39.8309 89.6813 39.6081 90.4378 39.1672 91.0783C38.7309 91.7141 38.0997 92.2084 37.2736 92.5611C36.4522 92.9092 35.4613 93.0832 34.301 93.0832C33.15 93.0832 32.1476 92.9069 31.2936 92.5542C30.4443 92.2014 29.7806 91.6793 29.3026 90.9878C28.8292 90.2916 28.5809 89.4307 28.5577 88.405H31.4746C31.5071 88.883 31.644 89.2822 31.8853 89.6024C32.1313 89.918 32.4585 90.157 32.8669 90.3195C33.28 90.4773 33.7464 90.5562 34.2662 90.5562C34.7767 90.5562 35.22 90.4819 35.5959 90.3334C35.9764 90.1849 36.2712 89.9783 36.48 89.7138C36.6889 89.4493 36.7933 89.1453 36.7933 88.8018C36.7933 88.4816 36.6981 88.2124 36.5079 87.9943C36.3222 87.7761 36.0484 87.5905 35.6864 87.4374C35.329 87.2842 34.8904 87.145 34.3706 87.0197L32.8182 86.6298C31.6161 86.3374 30.667 85.8803 29.9709 85.2584C29.2747 84.6365 28.929 83.7987 28.9336 82.7452C28.929 81.882 29.1587 81.1278 29.6228 80.4827C30.0915 79.8376 30.7343 79.334 31.5512 78.972C32.368 78.61 33.2962 78.429 34.3358 78.429C35.394 78.429 36.3176 78.61 37.1066 78.972C37.9002 79.334 38.5174 79.8376 38.9583 80.4827C39.3993 81.1278 39.6267 81.875 39.6406 82.7243H36.7515ZM50.6696 78.6239H53.6839V87.8829C53.6839 88.9225 53.4356 89.8322 52.9391 90.6119C52.4471 91.3916 51.7579 91.9995 50.8714 92.4358C49.985 92.8674 48.9524 93.0832 47.7735 93.0832C46.59 93.0832 45.5551 92.8674 44.6686 92.4358C43.7822 91.9995 43.093 91.3916 42.601 90.6119C42.1091 89.8322 41.8631 88.9225 41.8631 87.8829V78.6239H44.8775V87.6253C44.8775 88.1683 44.9958 88.651 45.2325 89.0733C45.4739 89.4957 45.8127 89.8275 46.2489 90.0688C46.6852 90.3102 47.1934 90.4309 47.7735 90.4309C48.3583 90.4309 48.8665 90.3102 49.2981 90.0688C49.7344 89.8275 50.0709 89.4957 50.3076 89.0733C50.5489 88.651 50.6696 88.1683 50.6696 87.6253V78.6239ZM68.0893 78.6239V92.8813H65.4857L59.2828 83.9078H59.1784V92.8813H56.164V78.6239H58.8094L64.9635 87.5905H65.0888V78.6239H68.0893Z" fill="#7B827E"/>
<path d="M92.9342 78.6239H96.6518L100.578 88.2031H100.745L104.672 78.6239H108.389V92.8813H105.465V83.6015H105.347L101.657 92.8117H99.6661L95.9765 83.5667H95.8581V92.8813H92.9342V78.6239ZM123.974 85.7526C123.974 87.3074 123.68 88.6301 123.09 89.7208C122.506 90.8114 121.707 91.6445 120.695 92.22C119.688 92.7908 118.556 93.0763 117.298 93.0763C116.031 93.0763 114.894 92.7885 113.887 92.213C112.88 91.6375 112.084 90.8045 111.499 89.7138C110.914 88.6231 110.622 87.3028 110.622 85.7526C110.622 84.1979 110.914 82.8752 111.499 81.7845C112.084 80.6938 112.88 79.8631 113.887 79.2922C114.894 78.7167 116.031 78.429 117.298 78.429C118.556 78.429 119.688 78.7167 120.695 79.2922C121.707 79.8631 122.506 80.6938 123.09 81.7845C123.68 82.8752 123.974 84.1979 123.974 85.7526ZM120.918 85.7526C120.918 84.7455 120.767 83.8962 120.466 83.2047C120.169 82.5132 119.749 81.9887 119.206 81.6313C118.663 81.274 118.027 81.0953 117.298 81.0953C116.57 81.0953 115.934 81.274 115.391 81.6313C114.848 81.9887 114.425 82.5132 114.124 83.2047C113.827 83.8962 113.678 84.7455 113.678 85.7526C113.678 86.7598 113.827 87.6091 114.124 88.3006C114.425 88.9921 114.848 89.5166 115.391 89.8739C115.934 90.2313 116.57 90.41 117.298 90.41C118.027 90.41 118.663 90.2313 119.206 89.8739C119.749 89.5166 120.169 88.9921 120.466 88.3006C120.767 87.6091 120.918 86.7598 120.918 85.7526ZM138.133 78.6239V92.8813H135.529L129.326 83.9078H129.222V92.8813H126.207V78.6239H128.853L135.007 87.5905H135.132V78.6239H138.133Z" fill="#7B827E"/>
<path d="M163.516 81.1092V78.6239H175.226V81.1092H170.861V92.8813H167.881V81.1092H163.516ZM185.96 78.6239H188.975V87.8829C188.975 88.9225 188.727 89.8322 188.23 90.6119C187.738 91.3916 187.049 91.9995 186.162 92.4358C185.276 92.8674 184.243 93.0832 183.064 93.0832C181.881 93.0832 180.846 92.8674 179.96 92.4358C179.073 91.9995 178.384 91.3916 177.892 90.6119C177.4 89.8322 177.154 88.9225 177.154 87.8829V78.6239H180.168V87.6253C180.168 88.1683 180.287 88.651 180.523 89.0733C180.765 89.4957 181.104 89.8275 181.54 90.0688C181.976 90.3102 182.484 90.4309 183.064 90.4309C183.649 90.4309 184.157 90.3102 184.589 90.0688C185.025 89.8275 185.362 89.4957 185.598 89.0733C185.84 88.651 185.96 88.1683 185.96 87.6253V78.6239ZM191.455 92.8813V78.6239H201.062V81.1092H194.469V84.5065H200.568V86.9918H194.469V90.396H201.09V92.8813H191.455Z" fill="#7B827E"/>
<path d="M230.659 92.8813L226.58 78.6239H229.872L232.232 88.5303H232.351L234.954 78.6239H237.774L240.371 88.5512H240.496L242.856 78.6239H246.149L242.069 92.8813H239.131L236.416 83.5597H236.305L233.597 92.8813H230.659ZM247.762 92.8813V78.6239H257.369V81.1092H250.776V84.5065H256.875V86.9918H250.776V90.396H257.397V92.8813H247.762ZM264.82 92.8813H259.766V78.6239H264.862C266.296 78.6239 267.53 78.9093 268.565 79.4802C269.6 80.0464 270.396 80.8609 270.953 81.9237C271.515 82.9865 271.795 84.2582 271.795 85.7387C271.795 87.2239 271.515 88.5002 270.953 89.5676C270.396 90.6351 269.595 91.4542 268.551 92.0251C267.512 92.5959 266.268 92.8813 264.82 92.8813ZM262.78 90.2986H264.694C265.586 90.2986 266.335 90.1408 266.943 89.8252C267.556 89.505 268.015 89.0107 268.322 88.3424C268.632 87.6694 268.788 86.8015 268.788 85.7387C268.788 84.6852 268.632 83.8243 268.322 83.1559C268.015 82.4876 267.558 81.9957 266.95 81.6801C266.342 81.3645 265.593 81.2067 264.701 81.2067H262.78V90.2986Z" fill="#7B827E"/>
<path d="M296.165 81.1092V78.6239H307.875V81.1092H303.51V92.8813H300.53V81.1092H296.165ZM309.803 92.8813V78.6239H312.817V84.5065H318.937V78.6239H321.944V92.8813H318.937V86.9918H312.817V92.8813H309.803ZM333.236 78.6239H336.25V87.8829C336.25 88.9225 336.002 89.8322 335.505 90.6119C335.013 91.3916 334.324 91.9995 333.438 92.4358C332.551 92.8674 331.519 93.0832 330.34 93.0832C329.156 93.0832 328.121 92.8674 327.235 92.4358C326.348 91.9995 325.659 91.3916 325.167 90.6119C324.675 89.8322 324.429 88.9225 324.429 87.8829V78.6239H327.444V87.6253C327.444 88.1683 327.562 88.651 327.799 89.0733C328.04 89.4957 328.379 89.8275 328.815 90.0688C329.251 90.3102 329.76 90.4309 330.34 90.4309C330.925 90.4309 331.433 90.3102 331.864 90.0688C332.301 89.8275 332.637 89.4957 332.874 89.0733C333.115 88.651 333.236 88.1683 333.236 87.6253V78.6239Z" fill="#7B827E"/>
<path d="M369.786 92.8813V78.6239H379.226V81.1092H372.8V84.5065H378.599V86.9918H372.8V92.8813H369.786ZM381.253 92.8813V78.6239H386.878C387.955 78.6239 388.874 78.8165 389.635 79.2017C390.401 79.5823 390.984 80.123 391.383 80.8238C391.786 81.52 391.988 82.3391 391.988 83.2813C391.988 84.228 391.784 85.0425 391.376 85.7248C390.967 86.4024 390.376 86.9222 389.6 87.2842C388.83 87.6462 387.897 87.8272 386.802 87.8272H383.036V85.4046H386.315C386.89 85.4046 387.368 85.3257 387.749 85.1679C388.129 85.0101 388.412 84.7734 388.598 84.4578C388.788 84.1422 388.883 83.75 388.883 83.2813C388.883 82.8079 388.788 82.4087 388.598 82.0839C388.412 81.759 388.127 81.513 387.742 81.3459C387.361 81.1742 386.881 81.0883 386.301 81.0883H384.268V92.8813H381.253ZM388.953 86.3931L392.497 92.8813H389.169L385.702 86.3931H388.953ZM397.133 78.6239V92.8813H394.119V78.6239H397.133Z" fill="#7B827E"/>
<path d="M440.145 82.7243C440.089 82.1628 439.85 81.7265 439.428 81.4155C439.006 81.1046 438.433 80.9491 437.709 80.9491C437.217 80.9491 436.801 81.0187 436.462 81.158C436.124 81.2925 435.864 81.4805 435.683 81.7218C435.506 81.9632 435.418 82.237 435.418 82.5433C435.409 82.7986 435.462 83.0214 435.578 83.2116C435.699 83.4019 435.864 83.5667 436.073 83.7059C436.281 83.8405 436.523 83.9589 436.797 84.061C437.07 84.1584 437.363 84.242 437.674 84.3116L438.955 84.6179C439.577 84.7571 440.147 84.9428 440.667 85.1748C441.187 85.4069 441.637 85.6923 442.018 86.0311C442.398 86.3699 442.693 86.769 442.902 87.2285C443.115 87.688 443.224 88.2147 443.229 88.8088C443.224 89.6813 443.002 90.4378 442.561 91.0783C442.125 91.7141 441.493 92.2084 440.667 92.5611C439.846 92.9092 438.855 93.0832 437.695 93.0832C436.544 93.0832 435.541 92.9069 434.687 92.5542C433.838 92.2014 433.174 91.6793 432.696 90.9878C432.223 90.2916 431.974 89.4307 431.951 88.405H434.868C434.901 88.883 435.038 89.2822 435.279 89.6024C435.525 89.918 435.852 90.157 436.26 90.3195C436.674 90.4773 437.14 90.5562 437.66 90.5562C438.17 90.5562 438.614 90.4819 438.989 90.3334C439.37 90.1849 439.665 89.9783 439.874 89.7138C440.082 89.4493 440.187 89.1453 440.187 88.8018C440.187 88.4816 440.092 88.2124 439.901 87.9943C439.716 87.7761 439.442 87.5905 439.08 87.4374C438.723 87.2842 438.284 87.145 437.764 87.0197L436.212 86.6298C435.01 86.3374 434.061 85.8803 433.364 85.2584C432.668 84.6365 432.323 83.7987 432.327 82.7452C432.323 81.882 432.552 81.1278 433.016 80.4827C433.485 79.8376 434.128 79.334 434.945 78.972C435.762 78.61 436.69 78.429 437.729 78.429C438.788 78.429 439.711 78.61 440.5 78.972C441.294 79.334 441.911 79.8376 442.352 80.4827C442.793 81.1278 443.02 81.875 443.034 82.7243H440.145ZM447.389 92.8813H444.158L449.08 78.6239H452.965L457.88 92.8813H454.65L451.078 81.882H450.967L447.389 92.8813ZM447.187 87.2772H454.817V89.6303H447.187V87.2772ZM457.311 81.1092V78.6239H469.02V81.1092H464.655V92.8813H461.676V81.1092H457.311Z" fill="#7B827E"/>
</g>
<rect width="66.9802" height="52.2772" transform="translate(10.1682 129.426)" fill="white"/>
<path d="M31.3201 163.426V161.964L36.8105 155.954C37.4549 155.25 37.9855 154.638 38.4024 154.118C38.8193 153.593 39.128 153.1 39.3283 152.64C39.5341 152.174 39.637 151.687 39.637 151.178C39.637 150.593 39.4962 150.087 39.2146 149.659C38.9385 149.231 38.5594 148.901 38.0775 148.668C37.5956 148.435 37.0542 148.319 36.4532 148.319C35.8142 148.319 35.2565 148.452 34.7801 148.717C34.309 148.977 33.9435 149.342 33.6836 149.813C33.4291 150.285 33.3019 150.837 33.3019 151.47H31.3851C31.3851 150.496 31.6098 149.64 32.0592 148.904C32.5086 148.167 33.1205 147.593 33.8948 147.182C34.6745 146.77 35.5489 146.565 36.5181 146.565C37.4928 146.565 38.3564 146.77 39.109 147.182C39.8617 147.593 40.4518 148.148 40.8796 148.847C41.3074 149.545 41.5212 150.322 41.5212 151.178C41.5212 151.79 41.4102 152.388 41.1882 152.973C40.9717 153.552 40.5926 154.199 40.0512 154.914C39.5151 155.623 38.7706 156.49 37.8176 157.513L34.0816 161.509V161.639H41.8136V163.426H31.3201ZM50.4635 146.565C51.1457 146.57 51.8279 146.7 52.5102 146.955C53.1924 147.209 53.8151 147.631 54.3782 148.222C54.9413 148.806 55.3934 149.605 55.7346 150.618C56.0757 151.63 56.2462 152.9 56.2462 154.427C56.2462 155.905 56.1055 157.218 55.8239 158.366C55.5478 159.508 55.1471 160.472 54.6219 161.257C54.1021 162.042 53.4686 162.638 52.7213 163.044C51.9795 163.45 51.1403 163.653 50.2036 163.653C49.2722 163.653 48.4411 163.469 47.7101 163.101C46.9846 162.727 46.389 162.21 45.9233 161.55C45.4631 160.884 45.168 160.112 45.038 159.235H47.0198C47.1984 159.998 47.5531 160.629 48.0837 161.127C48.6198 161.62 49.3264 161.866 50.2036 161.866C51.4868 161.866 52.4993 161.306 53.2411 160.185C53.9884 159.064 54.362 157.481 54.362 155.434H54.232C53.9288 155.889 53.5687 156.281 53.1518 156.612C52.7349 156.942 52.2719 157.196 51.763 157.375C51.254 157.554 50.7125 157.643 50.1386 157.643C49.1856 157.643 48.3111 157.407 47.5152 156.936C46.7247 156.46 46.0912 155.807 45.6147 154.979C45.1436 154.145 44.9081 153.192 44.9081 152.12C44.9081 151.102 45.1355 150.171 45.5903 149.326C46.0505 148.476 46.6949 147.799 47.5233 147.296C48.3572 146.792 49.3372 146.548 50.4635 146.565ZM50.4635 148.352C49.7812 148.352 49.1667 148.522 48.6198 148.863C48.0783 149.199 47.6479 149.654 47.3284 150.228C47.0143 150.796 46.8573 151.427 46.8573 152.12C46.8573 152.813 47.0089 153.444 47.3122 154.012C47.6208 154.576 48.0404 155.025 48.571 155.361C49.1071 155.691 49.7162 155.856 50.3985 155.856C50.9129 155.856 51.3921 155.756 51.8361 155.556C52.2801 155.35 52.6672 155.071 52.9975 154.719C53.3332 154.362 53.5958 153.958 53.7853 153.509C53.9748 153.054 54.0696 152.58 54.0696 152.088C54.0696 151.438 53.9126 150.829 53.5985 150.26C53.2899 149.692 52.8621 149.231 52.3152 148.879C51.7738 148.527 51.1565 148.352 50.4635 148.352Z" fill="#6C7470"/>
<rect width="66.9802" height="52.2772" transform="translate(78.7821 129.426)" fill="white"/>
<path d="M105.186 163.653C104.114 163.653 103.158 163.469 102.319 163.101C101.485 162.733 100.822 162.221 100.329 161.566C99.8416 160.905 99.5763 160.139 99.533 159.267H101.58C101.623 159.803 101.807 160.266 102.132 160.656C102.457 161.041 102.882 161.338 103.407 161.55C103.932 161.761 104.514 161.866 105.153 161.866C105.868 161.866 106.502 161.742 107.054 161.493C107.606 161.244 108.039 160.897 108.353 160.453C108.667 160.009 108.824 159.495 108.824 158.91C108.824 158.298 108.673 157.759 108.37 157.294C108.066 156.823 107.622 156.454 107.038 156.189C106.453 155.924 105.738 155.791 104.893 155.791H103.561V154.004H104.893C105.554 154.004 106.133 153.885 106.632 153.647C107.135 153.409 107.528 153.073 107.809 152.64C108.096 152.207 108.24 151.698 108.24 151.113C108.24 150.55 108.115 150.06 107.866 149.643C107.617 149.226 107.265 148.901 106.81 148.668C106.361 148.435 105.83 148.319 105.218 148.319C104.644 148.319 104.103 148.425 103.594 148.636C103.09 148.842 102.679 149.142 102.359 149.537C102.04 149.927 101.867 150.398 101.84 150.951H99.8904C99.9228 150.079 100.185 149.315 100.678 148.66C101.171 148 101.815 147.485 102.611 147.117C103.413 146.749 104.292 146.565 105.251 146.565C106.28 146.565 107.162 146.773 107.899 147.19C108.635 147.602 109.201 148.146 109.596 148.823C109.991 149.499 110.189 150.23 110.189 151.016C110.189 151.952 109.943 152.751 109.45 153.411C108.963 154.072 108.299 154.53 107.46 154.784V154.914C108.51 155.087 109.331 155.534 109.921 156.254C110.511 156.969 110.806 157.854 110.806 158.91C110.806 159.814 110.56 160.626 110.067 161.347C109.58 162.061 108.914 162.624 108.069 163.036C107.224 163.447 106.263 163.653 105.186 163.653ZM119.553 163.653C118.33 163.653 117.287 163.32 116.427 162.654C115.566 161.983 114.908 161.011 114.453 159.738C113.998 158.461 113.771 156.917 113.771 155.109C113.771 153.311 113.998 151.776 114.453 150.504C114.913 149.226 115.574 148.251 116.435 147.58C117.301 146.903 118.341 146.565 119.553 146.565C120.766 146.565 121.803 146.903 122.664 147.58C123.531 148.251 124.191 149.226 124.646 150.504C125.106 151.776 125.336 153.311 125.336 155.109C125.336 156.917 125.109 158.461 124.654 159.738C124.199 161.011 123.541 161.983 122.68 162.654C121.82 163.32 120.777 163.653 119.553 163.653ZM119.553 161.866C120.766 161.866 121.709 161.282 122.38 160.112C123.051 158.942 123.387 157.275 123.387 155.109C123.387 153.669 123.233 152.442 122.924 151.43C122.621 150.417 122.182 149.646 121.608 149.115C121.04 148.584 120.355 148.319 119.553 148.319C118.351 148.319 117.412 148.912 116.735 150.098C116.058 151.278 115.72 152.949 115.72 155.109C115.72 156.549 115.872 157.773 116.175 158.78C116.478 159.787 116.914 160.553 117.482 161.079C118.056 161.604 118.747 161.866 119.553 161.866Z" fill="#6C7470"/>
<g clip-path="url(#clip0_34_909)">
<rect width="66.9802" height="52.2772" transform="translate(147.396 129.426)" fill="white"/>
<path d="M175.631 163.653C174.559 163.653 173.603 163.469 172.764 163.101C171.93 162.733 171.267 162.221 170.774 161.566C170.287 160.905 170.022 160.139 169.978 159.267H172.025C172.068 159.803 172.252 160.266 172.577 160.656C172.902 161.041 173.327 161.338 173.852 161.55C174.378 161.761 174.96 161.866 175.599 161.866C176.313 161.866 176.947 161.742 177.499 161.493C178.051 161.244 178.485 160.897 178.799 160.453C179.113 160.009 179.27 159.495 179.27 158.91C179.27 158.298 179.118 157.759 178.815 157.294C178.512 156.823 178.068 156.454 177.483 156.189C176.898 155.924 176.183 155.791 175.339 155.791H174.007V154.004H175.339C175.999 154.004 176.579 153.885 177.077 153.647C177.58 153.409 177.973 153.073 178.255 152.64C178.542 152.207 178.685 151.698 178.685 151.113C178.685 150.55 178.56 150.06 178.311 149.643C178.062 149.226 177.71 148.901 177.256 148.668C176.806 148.435 176.275 148.319 175.664 148.319C175.09 148.319 174.548 148.425 174.039 148.636C173.536 148.842 173.124 149.142 172.805 149.537C172.485 149.927 172.312 150.398 172.285 150.951H170.336C170.368 150.079 170.631 149.315 171.124 148.66C171.616 148 172.261 147.485 173.057 147.117C173.858 146.749 174.738 146.565 175.696 146.565C176.725 146.565 177.607 146.773 178.344 147.19C179.08 147.602 179.646 148.146 180.041 148.823C180.437 149.499 180.634 150.23 180.634 151.016C180.634 151.952 180.388 152.751 179.895 153.411C179.408 154.072 178.745 154.53 177.905 154.784V154.914C178.956 155.087 179.776 155.534 180.366 156.254C180.956 156.969 181.252 157.854 181.252 158.91C181.252 159.814 181.005 160.626 180.512 161.347C180.025 162.061 179.359 162.624 178.514 163.036C177.67 163.447 176.709 163.653 175.631 163.653ZM190.421 146.792V163.426H188.407V148.904H188.309L184.248 151.6V149.554L188.407 146.792H190.421Z" fill="#6C7470"/>
</g>
<rect width="66.9802" height="52.2772" transform="translate(216.01 129.426)" fill="white"/>
<path d="M251.754 146.792V163.426H249.739V148.904H249.642L245.581 151.6V149.554L249.739 146.792H251.754Z" fill="#0A1811"/>
<rect width="66.9802" height="52.2772" transform="translate(284.624 129.426)" fill="white"/>
<path d="M312.912 163.426V161.964L318.402 155.954C319.046 155.25 319.577 154.638 319.994 154.118C320.411 153.593 320.72 153.1 320.92 152.64C321.126 152.174 321.229 151.687 321.229 151.178C321.229 150.593 321.088 150.087 320.806 149.659C320.53 149.231 320.151 148.901 319.669 148.668C319.187 148.435 318.646 148.319 318.045 148.319C317.406 148.319 316.848 148.452 316.372 148.717C315.901 148.977 315.535 149.342 315.275 149.813C315.021 150.285 314.893 150.837 314.893 151.47H312.977C312.977 150.496 313.201 149.64 313.651 148.904C314.1 148.167 314.712 147.593 315.486 147.182C316.266 146.77 317.14 146.565 318.11 146.565C319.084 146.565 319.948 146.77 320.701 147.182C321.453 147.593 322.043 148.148 322.471 148.847C322.899 149.545 323.113 150.322 323.113 151.178C323.113 151.79 323.002 152.388 322.78 152.973C322.563 153.552 322.184 154.199 321.643 154.914C321.107 155.623 320.362 156.49 319.409 157.513L315.673 161.509V161.639H323.405V163.426H312.912Z" fill="#0A1811"/>
<rect width="66.9802" height="52.2772" transform="translate(353.238 129.426)" fill="white"/>
<path d="M386.789 163.653C385.716 163.653 384.761 163.469 383.922 163.101C383.088 162.733 382.424 162.221 381.932 161.566C381.444 160.905 381.179 160.139 381.136 159.267H383.182C383.226 159.803 383.41 160.266 383.735 160.656C384.06 161.041 384.485 161.338 385.01 161.55C385.535 161.761 386.117 161.866 386.756 161.866C387.471 161.866 388.104 161.742 388.657 161.493C389.209 161.244 389.642 160.897 389.956 160.453C390.27 160.009 390.427 159.495 390.427 158.91C390.427 158.298 390.276 157.759 389.972 157.294C389.669 156.823 389.225 156.454 388.64 156.189C388.056 155.924 387.341 155.791 386.496 155.791H385.164V154.004H386.496C387.157 154.004 387.736 153.885 388.234 153.647C388.738 153.409 389.13 153.073 389.412 152.64C389.699 152.207 389.842 151.698 389.842 151.113C389.842 150.55 389.718 150.06 389.469 149.643C389.22 149.226 388.868 148.901 388.413 148.668C387.964 148.435 387.433 148.319 386.821 148.319C386.247 148.319 385.706 148.425 385.197 148.636C384.693 148.842 384.282 149.142 383.962 149.537C383.643 149.927 383.469 150.398 383.442 150.951H381.493C381.526 150.079 381.788 149.315 382.281 148.66C382.774 148 383.418 147.485 384.214 147.117C385.015 146.749 385.895 146.565 386.854 146.565C387.882 146.565 388.765 146.773 389.501 147.19C390.238 147.602 390.803 148.146 391.199 148.823C391.594 149.499 391.792 150.23 391.792 151.016C391.792 151.952 391.545 152.751 391.053 153.411C390.565 154.072 389.902 154.53 389.063 154.784V154.914C390.113 155.087 390.933 155.534 391.524 156.254C392.114 156.969 392.409 157.854 392.409 158.91C392.409 159.814 392.163 160.626 391.67 161.347C391.183 162.061 390.517 162.624 389.672 163.036C388.827 163.447 387.866 163.653 386.789 163.653Z" fill="#0A1811"/>
<rect width="66.9802" height="52.2772" transform="translate(421.851 129.426)" fill="white"/>
<path d="M449.336 160.015V158.358L456.646 146.792H457.848V149.359H457.036L451.513 158.098V158.228H461.357V160.015H449.336ZM457.166 163.426V159.511V158.739V146.792H459.083V163.426H457.166Z" fill="#0A1811"/>
<rect width="66.9802" height="52.2772" transform="translate(10.1682 183.336)" fill="white"/>
<path d="M43.6207 217.564C42.6678 217.564 41.8096 217.374 41.0461 216.995C40.2826 216.616 39.6708 216.096 39.2106 215.436C38.7503 214.775 38.4985 214.023 38.4552 213.178H40.4045C40.4803 213.931 40.8214 214.553 41.4278 215.046C42.0397 215.533 42.7707 215.777 43.6207 215.777C44.303 215.777 44.9094 215.617 45.4401 215.298C45.9761 214.978 46.3957 214.54 46.6989 213.982C47.0076 213.419 47.1619 212.783 47.1619 212.073C47.1619 211.348 47.0022 210.701 46.6827 210.132C46.3687 209.558 45.9355 209.106 45.3832 208.776C44.8309 208.446 44.2001 208.278 43.4908 208.272C42.9818 208.267 42.4593 208.345 41.9233 208.508C41.3872 208.665 40.9459 208.868 40.5994 209.117L38.7151 208.89L39.7222 200.703H48.3639V202.49H41.4116L40.8268 207.395H40.9243C41.2654 207.124 41.6931 206.9 42.2075 206.721C42.7219 206.542 43.258 206.453 43.8157 206.453C44.8336 206.453 45.7406 206.697 46.5365 207.184C47.3379 207.666 47.966 208.327 48.4208 209.166C48.881 210.005 49.1112 210.963 49.1112 212.041C49.1112 213.102 48.8729 214.05 48.3964 214.884C47.9254 215.712 47.2756 216.367 46.4472 216.849C45.6187 217.326 44.6766 217.564 43.6207 217.564Z" fill="#0A1811"/>
<rect width="66.9802" height="52.2772" transform="translate(78.7821 183.336)" fill="white"/>
<path d="M112.381 217.564C111.699 217.553 111.016 217.423 110.334 217.174C109.652 216.925 109.029 216.505 108.466 215.915C107.903 215.319 107.451 214.515 107.11 213.503C106.769 212.485 106.598 211.207 106.598 209.669C106.598 208.197 106.736 206.892 107.012 205.755C107.288 204.612 107.689 203.651 108.214 202.871C108.74 202.086 109.373 201.491 110.115 201.084C110.862 200.678 111.704 200.475 112.641 200.475C113.572 200.475 114.4 200.662 115.126 201.036C115.857 201.404 116.453 201.918 116.913 202.579C117.373 203.24 117.671 204 117.806 204.861H115.825C115.64 204.114 115.283 203.494 114.752 203.001C114.222 202.509 113.518 202.262 112.641 202.262C111.352 202.262 110.337 202.823 109.595 203.943C108.859 205.064 108.488 206.637 108.482 208.662H108.612C108.915 208.202 109.276 207.809 109.692 207.485C110.115 207.154 110.58 206.9 111.089 206.721C111.598 206.542 112.137 206.453 112.706 206.453C113.659 206.453 114.53 206.691 115.321 207.168C116.111 207.639 116.745 208.291 117.221 209.125C117.698 209.954 117.936 210.904 117.936 211.976C117.936 213.005 117.706 213.947 117.246 214.802C116.786 215.652 116.139 216.329 115.305 216.833C114.476 217.331 113.502 217.575 112.381 217.564ZM112.381 215.777C113.063 215.777 113.675 215.606 114.216 215.265C114.763 214.924 115.194 214.467 115.508 213.893C115.827 213.319 115.987 212.68 115.987 211.976C115.987 211.288 115.833 210.663 115.524 210.1C115.221 209.531 114.801 209.079 114.265 208.743C113.734 208.408 113.128 208.24 112.446 208.24C111.931 208.24 111.452 208.343 111.008 208.549C110.564 208.749 110.174 209.025 109.839 209.377C109.508 209.729 109.248 210.132 109.059 210.587C108.869 211.037 108.775 211.51 108.775 212.008C108.775 212.669 108.929 213.286 109.238 213.86C109.552 214.434 109.979 214.897 110.521 215.249C111.068 215.601 111.688 215.777 112.381 215.777Z" fill="#0A1811"/>
<g clip-path="url(#clip1_34_909)">
<rect width="66.9802" height="52.2772" transform="translate(147.396 183.336)" fill="white"/>
<path d="M176.595 217.336L184.034 202.62V202.49H175.458V200.703H186.113V202.587L178.706 217.336H176.595Z" fill="#0A1811"/>
</g>
<rect width="66.9802" height="52.2772" transform="translate(216.01 183.336)" fill="white"/>
<path d="M249.503 217.564C248.388 217.564 247.402 217.366 246.547 216.971C245.696 216.57 245.033 216.021 244.557 215.322C244.08 214.618 243.845 213.817 243.85 212.918C243.845 212.214 243.983 211.564 244.264 210.969C244.546 210.368 244.93 209.867 245.418 209.466C245.91 209.06 246.46 208.803 247.066 208.695V208.597C246.27 208.392 245.637 207.945 245.166 207.257C244.695 206.564 244.462 205.776 244.467 204.894C244.462 204.049 244.676 203.294 245.109 202.628C245.542 201.962 246.138 201.436 246.896 201.052C247.659 200.668 248.528 200.475 249.503 200.475C250.467 200.475 251.328 200.668 252.086 201.052C252.844 201.436 253.439 201.962 253.872 202.628C254.311 203.294 254.533 204.049 254.538 204.894C254.533 205.776 254.292 206.564 253.816 207.257C253.345 207.945 252.719 208.392 251.939 208.597V208.695C252.541 208.803 253.082 209.06 253.564 209.466C254.046 209.867 254.43 210.368 254.717 210.969C255.004 211.564 255.15 212.214 255.156 212.918C255.15 213.817 254.907 214.618 254.425 215.322C253.948 216.021 253.285 216.57 252.435 216.971C251.59 217.366 250.613 217.564 249.503 217.564ZM249.503 215.777C250.256 215.777 250.905 215.655 251.452 215.412C251.999 215.168 252.421 214.824 252.719 214.38C253.017 213.936 253.169 213.416 253.174 212.821C253.169 212.193 253.006 211.638 252.687 211.156C252.367 210.674 251.931 210.295 251.379 210.019C250.832 209.742 250.207 209.604 249.503 209.604C248.794 209.604 248.16 209.742 247.602 210.019C247.05 210.295 246.614 210.674 246.295 211.156C245.981 211.638 245.826 212.193 245.832 212.821C245.826 213.416 245.97 213.936 246.262 214.38C246.56 214.824 246.985 215.168 247.537 215.412C248.09 215.655 248.745 215.777 249.503 215.777ZM249.503 207.883C250.099 207.883 250.626 207.763 251.087 207.525C251.552 207.287 251.918 206.954 252.183 206.526C252.448 206.098 252.584 205.598 252.589 205.024C252.584 204.46 252.451 203.97 252.191 203.554C251.931 203.131 251.571 202.806 251.111 202.579C250.651 202.346 250.115 202.23 249.503 202.23C248.88 202.23 248.336 202.346 247.87 202.579C247.405 202.806 247.045 203.131 246.79 203.554C246.536 203.97 246.411 204.46 246.417 205.024C246.411 205.598 246.538 206.098 246.798 206.526C247.064 206.954 247.429 207.287 247.895 207.525C248.36 207.763 248.896 207.883 249.503 207.883Z" fill="#0A1811"/>
<rect width="66.9802" height="52.2772" transform="translate(284.624 183.336)" fill="white"/>
<path d="M317.995 200.475C318.677 200.481 319.359 200.611 320.042 200.865C320.724 201.12 321.347 201.542 321.91 202.132C322.473 202.717 322.925 203.516 323.266 204.528C323.607 205.541 323.778 206.81 323.778 208.337C323.778 209.816 323.637 211.129 323.355 212.276C323.079 213.419 322.679 214.383 322.153 215.168C321.634 215.953 321 216.549 320.253 216.955C319.511 217.361 318.672 217.564 317.735 217.564C316.804 217.564 315.973 217.38 315.242 217.012C314.516 216.638 313.92 216.121 313.455 215.46C312.995 214.794 312.699 214.023 312.57 213.146H314.551C314.73 213.909 315.085 214.54 315.615 215.038C316.151 215.531 316.858 215.777 317.735 215.777C319.018 215.777 320.031 215.217 320.773 214.096C321.52 212.975 321.893 211.391 321.893 209.344H321.764C321.46 209.799 321.1 210.192 320.683 210.522C320.266 210.852 319.803 211.107 319.294 211.286C318.786 211.464 318.244 211.554 317.67 211.554C316.717 211.554 315.843 211.318 315.047 210.847C314.256 210.371 313.623 209.718 313.146 208.89C312.675 208.056 312.44 207.103 312.44 206.031C312.44 205.013 312.667 204.081 313.122 203.237C313.582 202.387 314.226 201.71 315.055 201.206C315.889 200.703 316.869 200.459 317.995 200.475ZM317.995 202.262C317.313 202.262 316.698 202.433 316.151 202.774C315.61 203.11 315.179 203.564 314.86 204.138C314.546 204.707 314.389 205.338 314.389 206.031C314.389 206.724 314.54 207.355 314.844 207.923C315.152 208.486 315.572 208.936 316.103 209.271C316.639 209.602 317.248 209.767 317.93 209.767C318.444 209.767 318.924 209.667 319.368 209.466C319.812 209.261 320.199 208.982 320.529 208.63C320.865 208.272 321.127 207.869 321.317 207.42C321.506 206.965 321.601 206.491 321.601 205.998C321.601 205.348 321.444 204.739 321.13 204.171C320.821 203.602 320.394 203.142 319.847 202.79C319.305 202.438 318.688 202.262 317.995 202.262Z" fill="#0A1811"/>
<rect width="66.9802" height="52.2772" transform="translate(353.238 183.336)" fill="white"/>
<path d="M381.834 200.703V217.336H379.82V202.814H379.723L375.662 205.511V203.464L379.82 200.703H381.834ZM392.043 217.564C390.82 217.564 389.777 217.231 388.916 216.565C388.056 215.893 387.398 214.922 386.943 213.649C386.488 212.371 386.261 210.828 386.261 209.02C386.261 207.222 386.488 205.687 386.943 204.414C387.403 203.137 388.064 202.162 388.925 201.491C389.791 200.814 390.831 200.475 392.043 200.475C393.256 200.475 394.293 200.814 395.154 201.491C396.02 202.162 396.681 203.137 397.136 204.414C397.596 205.687 397.826 207.222 397.826 209.02C397.826 210.828 397.599 212.371 397.144 213.649C396.689 214.922 396.031 215.893 395.17 216.565C394.309 217.231 393.267 217.564 392.043 217.564ZM392.043 215.777C393.256 215.777 394.198 215.192 394.87 214.023C395.541 212.853 395.877 211.185 395.877 209.02C395.877 207.579 395.723 206.353 395.414 205.34C395.111 204.328 394.672 203.556 394.098 203.026C393.53 202.495 392.845 202.23 392.043 202.23C390.841 202.23 389.902 202.823 389.225 204.008C388.548 205.189 388.21 206.859 388.21 209.02C388.21 210.46 388.362 211.684 388.665 212.691C388.968 213.698 389.404 214.464 389.972 214.989C390.546 215.514 391.237 215.777 392.043 215.777Z" fill="#0A1811"/>
<rect width="66.9802" height="52.2772" transform="translate(421.851 183.336)" fill="white"/>
<path d="M452.279 200.703V217.336H450.265V202.814H450.168L446.107 205.511V203.464L450.265 200.703H452.279ZM462.911 200.703V217.336H460.897V202.814H460.799L456.738 205.511V203.464L460.897 200.703H462.911Z" fill="#0A1811"/>
<rect width="66.9802" height="52.2772" transform="translate(10.1682 237.248)" fill="white"/>
<path d="M38.9882 254.614V271.248H36.974V256.726H36.8765L32.8156 259.422V257.375L36.974 254.614H38.9882ZM43.772 271.248V269.786L49.2624 263.775C49.9068 263.072 50.4374 262.46 50.8543 261.94C51.2712 261.415 51.5799 260.922 51.7802 260.462C51.986 259.996 52.0888 259.509 52.0888 259C52.0888 258.415 51.9481 257.909 51.6665 257.481C51.3904 257.053 51.0113 256.723 50.5294 256.49C50.0475 256.257 49.5061 256.141 48.9051 256.141C48.2661 256.141 47.7084 256.273 47.2319 256.539C46.7609 256.799 46.3954 257.164 46.1355 257.635C45.881 258.106 45.7538 258.659 45.7538 259.292H43.837C43.837 258.317 44.0617 257.462 44.5111 256.726C44.9605 255.989 45.5724 255.415 46.3467 255.004C47.1264 254.592 48.0008 254.386 48.97 254.386C49.9447 254.386 50.8083 254.592 51.5609 255.004C52.3136 255.415 52.9037 255.97 53.3315 256.669C53.7593 257.367 53.9731 258.144 53.9731 259C53.9731 259.612 53.8621 260.21 53.6401 260.795C53.4235 261.374 53.0445 262.021 52.5031 262.736C51.967 263.445 51.2225 264.311 50.2695 265.335L46.5335 269.331V269.461H54.2655V271.248H43.772Z" fill="#0A1811"/>
<rect width="66.9802" height="52.2772" transform="translate(78.7821 237.248)" fill="white"/>
<path d="M107.245 254.614V271.248H105.231V256.726H105.133L101.072 259.422V257.375L105.231 254.614H107.245ZM117.649 271.475C116.577 271.475 115.621 271.291 114.782 270.923C113.948 270.554 113.285 270.043 112.792 269.388C112.305 268.727 112.039 267.961 111.996 267.089H114.043C114.086 267.625 114.27 268.088 114.595 268.478C114.92 268.862 115.345 269.16 115.87 269.371C116.395 269.583 116.977 269.688 117.616 269.688C118.331 269.688 118.965 269.564 119.517 269.315C120.069 269.065 120.502 268.719 120.816 268.275C121.13 267.831 121.288 267.317 121.288 266.732C121.288 266.12 121.136 265.581 120.833 265.116C120.529 264.644 120.085 264.276 119.501 264.011C118.916 263.746 118.201 263.613 117.357 263.613H116.025V261.826H117.357C118.017 261.826 118.596 261.707 119.095 261.469C119.598 261.231 119.991 260.895 120.272 260.462C120.559 260.028 120.703 259.52 120.703 258.935C120.703 258.372 120.578 257.882 120.329 257.465C120.08 257.048 119.728 256.723 119.273 256.49C118.824 256.257 118.293 256.141 117.681 256.141C117.107 256.141 116.566 256.246 116.057 256.458C115.553 256.663 115.142 256.964 114.822 257.359C114.503 257.749 114.33 258.22 114.303 258.772H112.353C112.386 257.901 112.649 257.137 113.141 256.482C113.634 255.821 114.278 255.307 115.074 254.939C115.876 254.571 116.755 254.386 117.714 254.386C118.743 254.386 119.625 254.595 120.362 255.012C121.098 255.423 121.664 255.968 122.059 256.644C122.454 257.321 122.652 258.052 122.652 258.837C122.652 259.774 122.406 260.573 121.913 261.233C121.426 261.894 120.762 262.351 119.923 262.606V262.736C120.973 262.909 121.794 263.356 122.384 264.076C122.974 264.791 123.269 265.676 123.269 266.732C123.269 267.636 123.023 268.448 122.53 269.168C122.043 269.883 121.377 270.446 120.532 270.858C119.688 271.269 118.726 271.475 117.649 271.475Z" fill="#0A1811"/>
<g clip-path="url(#clip2_34_909)">
<rect width="66.9802" height="52.2772" transform="translate(147.396 237.248)" fill="white"/>
<path d="M175.803 254.614V271.248H173.789V256.726H173.691L169.63 259.422V257.375L173.789 254.614H175.803ZM180.197 267.836V266.179L187.506 254.614H188.708V257.18H187.896L182.373 265.92V266.05H192.217V267.836H180.197ZM188.026 271.248V267.333V266.561V254.614H189.943V271.248H188.026Z" fill="#0A1811"/>
</g>
<rect width="66.9802" height="52.2772" transform="translate(216.01 237.248)" fill="white"/>
<path d="M244.796 254.614V271.248H242.782V256.726H242.685L238.624 259.422V257.375L242.782 254.614H244.796ZM254.778 271.475C253.825 271.475 252.967 271.285 252.203 270.906C251.44 270.527 250.828 270.008 250.368 269.347C249.908 268.686 249.656 267.934 249.613 267.089H251.562C251.638 267.842 251.979 268.464 252.585 268.957C253.197 269.444 253.928 269.688 254.778 269.688C255.46 269.688 256.067 269.528 256.597 269.209C257.133 268.889 257.553 268.451 257.856 267.893C258.165 267.33 258.319 266.694 258.319 265.985C258.319 265.259 258.16 264.612 257.84 264.043C257.526 263.469 257.093 263.017 256.541 262.687C255.988 262.357 255.357 262.189 254.648 262.184C254.139 262.178 253.617 262.257 253.081 262.419C252.545 262.576 252.103 262.779 251.757 263.028L249.872 262.801L250.88 254.614H259.521V256.401H252.569L251.984 261.306H252.082C252.423 261.036 252.85 260.811 253.365 260.632C253.879 260.454 254.415 260.364 254.973 260.364C255.991 260.364 256.898 260.608 257.694 261.095C258.495 261.577 259.123 262.238 259.578 263.077C260.038 263.916 260.268 264.875 260.268 265.952C260.268 267.013 260.03 267.961 259.554 268.795C259.083 269.623 258.433 270.278 257.605 270.76C256.776 271.237 255.834 271.475 254.778 271.475Z" fill="#0A1811"/>
<rect width="66.9802" height="52.2772" transform="translate(284.624 237.248)" fill="white"/>
<path d="M313.231 254.614V271.248H311.217V256.726H311.12L307.059 259.422V257.375L311.217 254.614H313.231ZM323.538 271.475C322.856 271.464 322.174 271.334 321.491 271.085C320.809 270.836 320.187 270.416 319.623 269.826C319.06 269.231 318.608 268.427 318.267 267.414C317.926 266.396 317.755 265.118 317.755 263.58C317.755 262.108 317.893 260.803 318.17 259.666C318.446 258.523 318.846 257.562 319.372 256.782C319.897 255.997 320.53 255.402 321.272 254.996C322.019 254.59 322.861 254.386 323.798 254.386C324.729 254.386 325.558 254.573 326.283 254.947C327.014 255.315 327.61 255.829 328.07 256.49C328.53 257.151 328.828 257.911 328.964 258.772H326.982C326.798 258.025 326.44 257.405 325.91 256.912C325.379 256.42 324.675 256.173 323.798 256.173C322.509 256.173 321.494 256.734 320.752 257.855C320.016 258.975 319.645 260.548 319.64 262.573H319.77C320.073 262.113 320.433 261.721 320.85 261.396C321.272 261.065 321.738 260.811 322.247 260.632C322.756 260.454 323.295 260.364 323.863 260.364C324.816 260.364 325.688 260.602 326.478 261.079C327.269 261.55 327.902 262.202 328.379 263.036C328.855 263.865 329.094 264.815 329.094 265.887C329.094 266.916 328.863 267.858 328.403 268.714C327.943 269.564 327.296 270.24 326.462 270.744C325.634 271.242 324.659 271.486 323.538 271.475ZM323.538 269.688C324.22 269.688 324.832 269.518 325.374 269.176C325.921 268.835 326.351 268.378 326.665 267.804C326.985 267.23 327.144 266.591 327.144 265.887C327.144 265.199 326.99 264.574 326.681 264.011C326.378 263.442 325.959 262.99 325.422 262.655C324.892 262.319 324.285 262.151 323.603 262.151C323.089 262.151 322.61 262.254 322.166 262.46C321.722 262.66 321.332 262.936 320.996 263.288C320.666 263.64 320.406 264.043 320.216 264.498C320.027 264.948 319.932 265.421 319.932 265.92C319.932 266.58 320.086 267.197 320.395 267.771C320.709 268.345 321.137 268.808 321.678 269.16C322.225 269.512 322.845 269.688 323.538 269.688Z" fill="#0A1811"/>
<rect width="66.9802" height="52.2772" transform="translate(353.238 237.248)" fill="white"/>
<path d="M382.448 254.614V271.248H380.434V256.726H380.337L376.276 259.422V257.375L380.434 254.614H382.448ZM387.752 271.248L395.192 256.531V256.401H386.615V254.614H397.271V256.498L389.864 271.248H387.752Z" fill="#0A1811"/>
<rect width="66.9802" height="52.2772" transform="translate(421.851 237.248)" fill="white"/>
<path d="M450.548 254.614V271.248H448.534V256.726H448.437L444.376 259.422V257.375L448.534 254.614H450.548ZM460.66 271.475C459.545 271.475 458.559 271.277 457.704 270.882C456.854 270.481 456.19 269.932 455.714 269.233C455.238 268.529 455.002 267.728 455.007 266.829C455.002 266.125 455.14 265.476 455.422 264.88C455.703 264.279 456.088 263.778 456.575 263.377C457.068 262.971 457.617 262.714 458.224 262.606V262.508C457.428 262.303 456.794 261.856 456.323 261.168C455.852 260.475 455.619 259.687 455.625 258.805C455.619 257.96 455.833 257.205 456.266 256.539C456.699 255.873 457.295 255.348 458.053 254.963C458.817 254.579 459.686 254.386 460.66 254.386C461.624 254.386 462.485 254.579 463.243 254.963C464.001 255.348 464.597 255.873 465.03 256.539C465.468 257.205 465.69 257.96 465.696 258.805C465.69 259.687 465.449 260.475 464.973 261.168C464.502 261.856 463.877 262.303 463.097 262.508V262.606C463.698 262.714 464.239 262.971 464.721 263.377C465.203 263.778 465.588 264.279 465.875 264.88C466.161 265.476 466.308 266.125 466.313 266.829C466.308 267.728 466.064 268.529 465.582 269.233C465.106 269.932 464.442 270.481 463.592 270.882C462.748 271.277 461.77 271.475 460.66 271.475ZM460.66 269.688C461.413 269.688 462.063 269.566 462.61 269.323C463.156 269.079 463.579 268.735 463.877 268.291C464.174 267.847 464.326 267.327 464.331 266.732C464.326 266.104 464.163 265.549 463.844 265.067C463.525 264.585 463.089 264.206 462.536 263.93C461.99 263.654 461.364 263.516 460.66 263.516C459.951 263.516 459.317 263.654 458.76 263.93C458.207 264.206 457.772 264.585 457.452 265.067C457.138 265.549 456.984 266.104 456.989 266.732C456.984 267.327 457.127 267.847 457.42 268.291C457.717 268.735 458.142 269.079 458.695 269.323C459.247 269.566 459.902 269.688 460.66 269.688ZM460.66 261.794C461.256 261.794 461.784 261.675 462.244 261.436C462.71 261.198 463.075 260.865 463.34 260.437C463.606 260.01 463.741 259.509 463.747 258.935C463.741 258.372 463.608 257.882 463.349 257.465C463.089 257.042 462.729 256.717 462.268 256.49C461.808 256.257 461.272 256.141 460.66 256.141C460.038 256.141 459.493 256.257 459.028 256.49C458.562 256.717 458.202 257.042 457.948 257.465C457.693 257.882 457.569 258.372 457.574 258.935C457.569 259.509 457.696 260.01 457.956 260.437C458.221 260.865 458.586 261.198 459.052 261.436C459.518 261.675 460.054 261.794 460.66 261.794Z" fill="#0A1811"/>
<rect width="66.9802" height="52.2772" transform="translate(10.1682 291.158)" fill="white"/>
<path d="M38.776 308.525V325.158H36.7618V310.636H36.6643L32.6034 313.333V311.286L36.7618 308.525H38.776ZM48.8553 308.297C49.5376 308.303 50.2198 308.432 50.902 308.687C51.5843 308.941 52.207 309.364 52.7701 309.954C53.3332 310.539 53.7853 311.337 54.1264 312.35C54.4676 313.362 54.6381 314.632 54.6381 316.159C54.6381 317.637 54.4973 318.95 54.2158 320.098C53.9396 321.241 53.5389 322.205 53.0137 322.99C52.4939 323.775 51.8604 324.37 51.1132 324.776C50.3714 325.183 49.5321 325.386 48.5954 325.386C47.6641 325.386 46.833 325.202 46.102 324.833C45.3764 324.46 44.7808 323.943 44.3152 323.282C43.8549 322.616 43.5598 321.844 43.4299 320.967H45.4116C45.5903 321.731 45.945 322.362 46.4756 322.86C47.0116 323.352 47.7182 323.599 48.5954 323.599C49.8787 323.599 50.8912 323.038 51.633 321.918C52.3802 320.797 52.7538 319.213 52.7538 317.166H52.6239C52.3207 317.621 51.9606 318.014 51.5437 318.344C51.1267 318.674 50.6638 318.929 50.1548 319.107C49.6458 319.286 49.1044 319.375 48.5304 319.375C47.5775 319.375 46.703 319.14 45.9071 318.669C45.1165 318.192 44.483 317.54 44.0065 316.711C43.5355 315.878 43.2999 314.925 43.2999 313.853C43.2999 312.835 43.5273 311.903 43.9822 311.059C44.4424 310.208 45.0868 309.532 45.9152 309.028C46.749 308.525 47.7291 308.281 48.8553 308.297ZM48.8553 310.084C48.1731 310.084 47.5585 310.255 47.0116 310.596C46.4702 310.931 46.0397 311.386 45.7203 311.96C45.4062 312.529 45.2492 313.159 45.2492 313.853C45.2492 314.546 45.4008 315.176 45.704 315.745C46.0126 316.308 46.4323 316.757 46.9629 317.093C47.499 317.423 48.1081 317.589 48.7903 317.589C49.3047 317.589 49.7839 317.488 50.2279 317.288C50.6719 317.082 51.0591 316.803 51.3893 316.452C51.7251 316.094 51.9877 315.691 52.1772 315.241C52.3667 314.787 52.4614 314.313 52.4614 313.82C52.4614 313.17 52.3044 312.561 51.9904 311.993C51.6817 311.424 51.254 310.964 50.7071 310.612C50.1656 310.26 49.5484 310.084 48.8553 310.084Z" fill="#0A1811"/>
<rect width="66.9802" height="52.2772" transform="translate(78.7821 291.158)" fill="white"/>
<path d="M99.9228 325.158V323.696L105.413 317.686C106.058 316.982 106.588 316.37 107.005 315.85C107.422 315.325 107.731 314.833 107.931 314.372C108.137 313.907 108.24 313.419 108.24 312.91C108.24 312.326 108.099 311.819 107.817 311.392C107.541 310.964 107.162 310.634 106.68 310.401C106.198 310.168 105.657 310.051 105.056 310.051C104.417 310.051 103.859 310.184 103.383 310.449C102.912 310.709 102.546 311.075 102.286 311.546C102.032 312.017 101.905 312.569 101.905 313.203H99.9878C99.9878 312.228 100.213 311.373 100.662 310.636C101.111 309.9 101.723 309.326 102.497 308.914C103.277 308.503 104.152 308.297 105.121 308.297C106.095 308.297 106.959 308.503 107.712 308.914C108.464 309.326 109.055 309.881 109.482 310.579C109.91 311.278 110.124 312.055 110.124 312.91C110.124 313.522 110.013 314.121 109.791 314.705C109.574 315.285 109.195 315.932 108.654 316.646C108.118 317.356 107.373 318.222 106.42 319.245L102.684 323.241V323.371H110.416V325.158H99.9228ZM119.196 325.386C117.972 325.386 116.93 325.053 116.069 324.387C115.208 323.715 114.55 322.743 114.096 321.471C113.641 320.193 113.413 318.65 113.413 316.841C113.413 315.044 113.641 313.509 114.096 312.236C114.556 310.958 115.216 309.984 116.077 309.312C116.944 308.636 117.983 308.297 119.196 308.297C120.409 308.297 121.446 308.636 122.307 309.312C123.173 309.984 123.834 310.958 124.289 312.236C124.749 313.509 124.979 315.044 124.979 316.841C124.979 318.65 124.752 320.193 124.297 321.471C123.842 322.743 123.184 323.715 122.323 324.387C121.462 325.053 120.42 325.386 119.196 325.386ZM119.196 323.599C120.409 323.599 121.351 323.014 122.023 321.844C122.694 320.675 123.03 319.007 123.03 316.841C123.03 315.401 122.875 314.175 122.567 313.162C122.264 312.15 121.825 311.378 121.251 310.847C120.682 310.317 119.997 310.051 119.196 310.051C117.994 310.051 117.055 310.644 116.378 311.83C115.701 313.011 115.363 314.681 115.363 316.841C115.363 318.282 115.514 319.505 115.817 320.512C116.121 321.52 116.557 322.286 117.125 322.811C117.699 323.336 118.389 323.599 119.196 323.599Z" fill="#0A1811"/>
<g clip-path="url(#clip3_34_909)">
<rect width="66.9802" height="52.2772" transform="translate(147.396 291.158)" fill="white"/>
<path d="M170.368 325.158V323.696L175.859 317.686C176.503 316.982 177.034 316.37 177.45 315.85C177.867 315.325 178.176 314.833 178.376 314.372C178.582 313.907 178.685 313.419 178.685 312.91C178.685 312.326 178.544 311.819 178.263 311.392C177.987 310.964 177.607 310.634 177.126 310.401C176.644 310.168 176.102 310.051 175.501 310.051C174.862 310.051 174.305 310.184 173.828 310.449C173.357 310.709 172.992 311.075 172.732 311.546C172.477 312.017 172.35 312.569 172.35 313.203H170.433C170.433 312.228 170.658 311.373 171.107 310.636C171.557 309.9 172.169 309.326 172.943 308.914C173.723 308.503 174.597 308.297 175.566 308.297C176.541 308.297 177.404 308.503 178.157 308.914C178.91 309.326 179.5 309.881 179.928 310.579C180.355 311.278 180.569 312.055 180.569 312.91C180.569 313.522 180.458 314.121 180.236 314.705C180.02 315.285 179.641 315.932 179.099 316.646C178.563 317.356 177.819 318.222 176.866 319.245L173.13 323.241V323.371H180.862V325.158H170.368ZM190.064 308.525V325.158H188.05V310.636H187.952L183.891 313.333V311.286L188.05 308.525H190.064Z" fill="#0A1811"/>
</g>
<rect width="66.9802" height="52.2772" transform="translate(216.01 291.158)" fill="white"/>
<path d="M237.374 325.158V323.696L242.864 317.686C243.509 316.982 244.039 316.37 244.456 315.85C244.873 315.325 245.182 314.833 245.382 314.372C245.588 313.907 245.691 313.419 245.691 312.91C245.691 312.326 245.55 311.819 245.268 311.392C244.992 310.964 244.613 310.634 244.131 310.401C243.649 310.168 243.108 310.051 242.507 310.051C241.868 310.051 241.31 310.184 240.834 310.449C240.363 310.709 239.997 311.075 239.737 311.546C239.483 312.017 239.356 312.569 239.356 313.203H237.439C237.439 312.228 237.664 311.373 238.113 310.636C238.562 309.9 239.174 309.326 239.949 308.914C240.728 308.503 241.603 308.297 242.572 308.297C243.547 308.297 244.41 308.503 245.163 308.914C245.915 309.326 246.506 309.881 246.933 310.579C247.361 311.278 247.575 312.055 247.575 312.91C247.575 313.522 247.464 314.121 247.242 314.705C247.025 315.285 246.646 315.932 246.105 316.646C245.569 317.356 244.824 318.222 243.871 319.245L240.135 323.241V323.371H247.867V325.158H237.374ZM251.222 325.158V323.696L256.712 317.686C257.356 316.982 257.887 316.37 258.304 315.85C258.721 315.325 259.03 314.833 259.23 314.372C259.436 313.907 259.539 313.419 259.539 312.91C259.539 312.326 259.398 311.819 259.116 311.392C258.84 310.964 258.461 310.634 257.979 310.401C257.497 310.168 256.956 310.051 256.355 310.051C255.716 310.051 255.158 310.184 254.682 310.449C254.211 310.709 253.845 311.075 253.585 311.546C253.331 312.017 253.203 312.569 253.203 313.203H251.287C251.287 312.228 251.511 311.373 251.961 310.636C252.41 309.9 253.022 309.326 253.796 308.914C254.576 308.503 255.451 308.297 256.42 308.297C257.394 308.297 258.258 308.503 259.011 308.914C259.763 309.326 260.353 309.881 260.781 310.579C261.209 311.278 261.423 312.055 261.423 312.91C261.423 313.522 261.312 314.121 261.09 314.705C260.873 315.285 260.494 315.932 259.953 316.646C259.417 317.356 258.672 318.222 257.719 319.245L253.983 323.241V323.371H261.715V325.158H251.222Z" fill="#0A1811"/>
<rect width="66.9802" height="52.2772" transform="translate(284.624 291.158)" fill="white"/>
<path d="M305.63 325.158V323.696L311.121 317.686C311.765 316.982 312.296 316.37 312.713 315.85C313.13 315.325 313.438 314.833 313.639 314.372C313.844 313.907 313.947 313.419 313.947 312.91C313.947 312.326 313.806 311.819 313.525 311.392C313.249 310.964 312.87 310.634 312.388 310.401C311.906 310.168 311.364 310.051 310.763 310.051C310.125 310.051 309.567 310.184 309.09 310.449C308.619 310.709 308.254 311.075 307.994 311.546C307.739 312.017 307.612 312.569 307.612 313.203H305.695C305.695 312.228 305.92 311.373 306.369 310.636C306.819 309.9 307.431 309.326 308.205 308.914C308.985 308.503 309.859 308.297 310.828 308.297C311.803 308.297 312.667 308.503 313.419 308.914C314.172 309.326 314.762 309.881 315.19 310.579C315.618 311.278 315.831 312.055 315.831 312.91C315.831 313.522 315.72 314.121 315.499 314.705C315.282 315.285 314.903 315.932 314.361 316.646C313.825 317.356 313.081 318.222 312.128 319.245L308.392 323.241V323.371H316.124V325.158H305.63ZM325.099 325.386C324.027 325.386 323.071 325.202 322.232 324.833C321.398 324.465 320.734 323.953 320.242 323.298C319.754 322.638 319.489 321.872 319.446 321H321.492C321.536 321.536 321.72 321.999 322.045 322.389C322.37 322.773 322.795 323.071 323.32 323.282C323.845 323.493 324.427 323.599 325.066 323.599C325.781 323.599 326.414 323.474 326.967 323.225C327.519 322.976 327.952 322.63 328.266 322.186C328.58 321.742 328.737 321.227 328.737 320.642C328.737 320.031 328.586 319.492 328.282 319.026C327.979 318.555 327.535 318.187 326.95 317.922C326.366 317.656 325.651 317.524 324.806 317.524H323.474V315.737H324.806C325.467 315.737 326.046 315.618 326.544 315.379C327.048 315.141 327.44 314.805 327.722 314.372C328.009 313.939 328.152 313.43 328.152 312.845C328.152 312.282 328.028 311.792 327.779 311.375C327.53 310.958 327.178 310.634 326.723 310.401C326.274 310.168 325.743 310.051 325.131 310.051C324.557 310.051 324.016 310.157 323.507 310.368C323.003 310.574 322.592 310.874 322.272 311.27C321.953 311.66 321.779 312.131 321.752 312.683H319.803C319.836 311.811 320.098 311.048 320.591 310.393C321.084 309.732 321.728 309.218 322.524 308.849C323.325 308.481 324.205 308.297 325.164 308.297C326.192 308.297 327.075 308.506 327.811 308.923C328.548 309.334 329.114 309.878 329.509 310.555C329.904 311.232 330.102 311.963 330.102 312.748C330.102 313.685 329.855 314.483 329.363 315.144C328.875 315.804 328.212 316.262 327.373 316.516V316.646C328.423 316.82 329.243 317.266 329.834 317.987C330.424 318.701 330.719 319.587 330.719 320.642C330.719 321.547 330.473 322.359 329.98 323.079C329.493 323.794 328.827 324.357 327.982 324.768C327.137 325.18 326.176 325.386 325.099 325.386Z" fill="#0A1811"/>
<rect width="66.9802" height="52.2772" transform="translate(353.238 291.158)" fill="white"/>
<path d="M374.367 325.158V323.696L379.858 317.686C380.502 316.982 381.032 316.37 381.449 315.85C381.866 315.325 382.175 314.833 382.375 314.372C382.581 313.907 382.684 313.419 382.684 312.91C382.684 312.326 382.543 311.819 382.262 311.392C381.985 310.964 381.606 310.634 381.125 310.401C380.643 310.168 380.101 310.051 379.5 310.051C378.861 310.051 378.304 310.184 377.827 310.449C377.356 310.709 376.99 311.075 376.731 311.546C376.476 312.017 376.349 312.569 376.349 313.203H374.432C374.432 312.228 374.657 311.373 375.106 310.636C375.556 309.9 376.167 309.326 376.942 308.914C377.721 308.503 378.596 308.297 379.565 308.297C380.54 308.297 381.403 308.503 382.156 308.914C382.909 309.326 383.499 309.881 383.927 310.579C384.354 311.278 384.568 312.055 384.568 312.91C384.568 313.522 384.457 314.121 384.235 314.705C384.019 315.285 383.64 315.932 383.098 316.646C382.562 317.356 381.818 318.222 380.865 319.245L377.129 323.241V323.371H384.861V325.158H374.367ZM387.468 321.747V320.09L394.777 308.525H395.98V311.091H395.167L389.644 319.83V319.96H399.488V321.747H387.468ZM395.297 325.158V321.243V320.472V308.525H397.214V325.158H395.297Z" fill="#0A1811"/>
<rect width="66.9802" height="52.2772" transform="translate(421.851 291.158)" fill="white"/>
<path d="M443.182 325.158V323.696L448.672 317.686C449.317 316.982 449.847 316.37 450.264 315.85C450.681 315.325 450.99 314.833 451.19 314.372C451.396 313.907 451.499 313.419 451.499 312.91C451.499 312.326 451.358 311.819 451.076 311.392C450.8 310.964 450.421 310.634 449.939 310.401C449.457 310.168 448.916 310.051 448.315 310.051C447.676 310.051 447.118 310.184 446.642 310.449C446.171 310.709 445.805 311.075 445.545 311.546C445.291 312.017 445.164 312.569 445.164 313.203H443.247C443.247 312.228 443.472 311.373 443.921 310.636C444.37 309.9 444.982 309.326 445.757 308.914C446.536 308.503 447.411 308.297 448.38 308.297C449.355 308.297 450.218 308.503 450.971 308.914C451.723 309.326 452.314 309.881 452.741 310.579C453.169 311.278 453.383 312.055 453.383 312.91C453.383 313.522 453.272 314.121 453.05 314.705C452.833 315.285 452.454 315.932 451.913 316.646C451.377 317.356 450.632 318.222 449.679 319.245L445.943 323.241V323.371H453.675V325.158H443.182ZM462.228 325.386C461.275 325.386 460.417 325.196 459.653 324.817C458.89 324.438 458.278 323.918 457.818 323.258C457.357 322.597 457.106 321.844 457.062 321H459.012C459.087 321.752 459.428 322.375 460.035 322.868C460.647 323.355 461.378 323.599 462.228 323.599C462.91 323.599 463.516 323.439 464.047 323.12C464.583 322.8 465.003 322.362 465.306 321.804C465.615 321.241 465.769 320.605 465.769 319.895C465.769 319.17 465.609 318.523 465.29 317.954C464.976 317.38 464.543 316.928 463.99 316.598C463.438 316.267 462.807 316.1 462.098 316.094C461.589 316.089 461.066 316.167 460.53 316.33C459.994 316.487 459.553 316.69 459.206 316.939L457.322 316.711L458.329 308.525H466.971V310.311H460.019L459.434 315.217H459.531C459.872 314.946 460.3 314.722 460.815 314.543C461.329 314.364 461.865 314.275 462.423 314.275C463.441 314.275 464.348 314.519 465.144 315.006C465.945 315.488 466.573 316.148 467.028 316.988C467.488 317.827 467.718 318.785 467.718 319.863C467.718 320.924 467.48 321.872 467.003 322.705C466.532 323.534 465.883 324.189 465.054 324.671C464.226 325.147 463.284 325.386 462.228 325.386Z" fill="#0A1811"/>
<rect width="66.9802" height="52.2772" transform="translate(10.1682 343.436)" fill="white"/>
<path d="M31.3201 377.436V375.974L36.8105 369.963C37.4549 369.259 37.9855 368.648 38.4024 368.128C38.8193 367.603 39.128 367.11 39.3283 366.65C39.5341 366.184 39.637 365.697 39.637 365.188C39.637 364.603 39.4962 364.097 39.2146 363.669C38.9385 363.241 38.5594 362.911 38.0775 362.678C37.5956 362.445 37.0542 362.329 36.4532 362.329C35.8142 362.329 35.2565 362.461 34.7801 362.727C34.309 362.987 33.9435 363.352 33.6836 363.823C33.4291 364.294 33.3019 364.847 33.3019 365.48H31.3851C31.3851 364.505 31.6098 363.65 32.0592 362.914C32.5086 362.177 33.1205 361.603 33.8948 361.192C34.6745 360.78 35.5489 360.574 36.5181 360.574C37.4928 360.574 38.3564 360.78 39.109 361.192C39.8617 361.603 40.4518 362.158 40.8796 362.857C41.3074 363.555 41.5212 364.332 41.5212 365.188C41.5212 365.8 41.4102 366.398 41.1882 366.983C40.9717 367.562 40.5926 368.209 40.0512 368.924C39.5151 369.633 38.7706 370.499 37.8176 371.523L34.0816 375.519V375.649H41.8136V377.436H31.3201ZM50.6909 377.663C50.0086 377.652 49.3264 377.522 48.6441 377.273C47.9619 377.024 47.3392 376.604 46.7761 376.014C46.213 375.419 45.7609 374.615 45.4197 373.602C45.0786 372.584 44.9081 371.306 44.9081 369.768C44.9081 368.296 45.0461 366.991 45.3223 365.854C45.5984 364.711 45.9991 363.75 46.5243 362.97C47.0495 362.185 47.6831 361.59 48.4249 361.184C49.1721 360.778 50.014 360.574 50.9508 360.574C51.8821 360.574 52.7105 360.761 53.4361 361.135C54.167 361.503 54.7626 362.017 55.2229 362.678C55.6831 363.339 55.9809 364.099 56.1163 364.96H54.1346C53.9505 364.213 53.5931 363.593 53.0625 363.1C52.5318 362.608 51.8279 362.361 50.9508 362.361C49.6621 362.361 48.6469 362.922 47.9051 364.043C47.1687 365.163 46.7978 366.736 46.7924 368.761H46.9223C47.2255 368.301 47.5856 367.909 48.0025 367.584C48.4249 367.253 48.8905 366.999 49.3995 366.82C49.9085 366.642 50.4472 366.552 51.0157 366.552C51.9687 366.552 52.8405 366.79 53.631 367.267C54.4215 367.738 55.055 368.39 55.5315 369.224C56.008 370.053 56.2462 371.003 56.2462 372.075C56.2462 373.104 56.0161 374.046 55.5559 374.902C55.0956 375.752 54.4486 376.428 53.6148 376.932C52.7863 377.43 51.8117 377.674 50.6909 377.663ZM50.6909 375.876C51.3731 375.876 51.985 375.706 52.5264 375.364C53.0733 375.023 53.5038 374.566 53.8178 373.992C54.1373 373.418 54.297 372.779 54.297 372.075C54.297 371.387 54.1427 370.762 53.834 370.199C53.5308 369.63 53.1112 369.178 52.5751 368.843C52.0445 368.507 51.4381 368.339 50.7558 368.339C50.2415 368.339 49.7623 368.442 49.3183 368.648C48.8743 368.848 48.4844 369.124 48.1487 369.476C47.8184 369.828 47.5585 370.231 47.369 370.686C47.1795 371.136 47.0847 371.609 47.0847 372.108C47.0847 372.768 47.2391 373.385 47.5477 373.959C47.8617 374.533 48.2895 374.996 48.8309 375.348C49.3778 375.7 49.9978 375.876 50.6909 375.876Z" fill="#0A1811"/>
<rect width="66.9802" height="52.2772" transform="translate(78.7821 343.436)" fill="white"/>
<path d="M100.537 377.436V375.974L106.027 369.963C106.672 369.259 107.202 368.648 107.619 368.128C108.036 367.603 108.345 367.11 108.545 366.65C108.751 366.184 108.854 365.697 108.854 365.188C108.854 364.603 108.713 364.097 108.432 363.669C108.155 363.241 107.776 362.911 107.294 362.678C106.813 362.445 106.271 362.329 105.67 362.329C105.031 362.329 104.473 362.461 103.997 362.727C103.526 362.987 103.16 363.352 102.901 363.823C102.646 364.294 102.519 364.847 102.519 365.48H100.602C100.602 364.505 100.827 363.65 101.276 362.914C101.726 362.177 102.337 361.603 103.112 361.192C103.891 360.78 104.766 360.574 105.735 360.574C106.71 360.574 107.573 360.78 108.326 361.192C109.079 361.603 109.669 362.158 110.097 362.857C110.524 363.555 110.738 364.332 110.738 365.188C110.738 365.8 110.627 366.398 110.405 366.983C110.189 367.562 109.81 368.209 109.268 368.924C108.732 369.633 107.988 370.499 107.035 371.523L103.299 375.519V375.649H111.031V377.436H100.537ZM114.905 377.436L122.344 362.719V362.589H113.768V360.802H124.424V362.686L117.016 377.436H114.905Z" fill="#0A1811"/>
<g clip-path="url(#clip4_34_909)">
<rect width="66.9802" height="52.2772" transform="translate(147.396 343.436)" fill="white"/>
<path d="M168.637 377.436V375.974L174.128 369.963C174.772 369.259 175.303 368.648 175.719 368.128C176.136 367.603 176.445 367.11 176.645 366.65C176.851 366.184 176.954 365.697 176.954 365.188C176.954 364.603 176.813 364.097 176.532 363.669C176.256 363.241 175.877 362.911 175.395 362.678C174.913 362.445 174.371 362.329 173.77 362.329C173.131 362.329 172.574 362.461 172.097 362.727C171.626 362.987 171.261 363.352 171.001 363.823C170.746 364.294 170.619 364.847 170.619 365.48H168.702C168.702 364.505 168.927 363.65 169.376 362.914C169.826 362.177 170.438 361.603 171.212 361.192C171.992 360.78 172.866 360.574 173.835 360.574C174.81 360.574 175.673 360.78 176.426 361.192C177.179 361.603 177.769 362.158 178.197 362.857C178.624 363.555 178.838 364.332 178.838 365.188C178.838 365.8 178.727 366.398 178.505 366.983C178.289 367.562 177.91 368.209 177.368 368.924C176.832 369.633 176.088 370.499 175.135 371.523L171.399 375.519V375.649H179.131V377.436H168.637ZM187.813 377.663C186.698 377.663 185.712 377.465 184.857 377.07C184.007 376.669 183.343 376.12 182.867 375.421C182.39 374.717 182.155 373.916 182.16 373.017C182.155 372.313 182.293 371.664 182.574 371.068C182.856 370.467 183.24 369.966 183.728 369.565C184.22 369.159 184.77 368.902 185.376 368.794V368.696C184.58 368.491 183.947 368.044 183.476 367.356C183.005 366.663 182.772 365.875 182.777 364.993C182.772 364.148 182.986 363.393 183.419 362.727C183.852 362.061 184.448 361.536 185.206 361.151C185.969 360.767 186.838 360.574 187.813 360.574C188.777 360.574 189.638 360.767 190.396 361.151C191.154 361.536 191.749 362.061 192.183 362.727C192.621 363.393 192.843 364.148 192.849 364.993C192.843 365.875 192.602 366.663 192.126 367.356C191.655 368.044 191.029 368.491 190.25 368.696V368.794C190.851 368.902 191.392 369.159 191.874 369.565C192.356 369.966 192.74 370.467 193.027 371.068C193.314 371.664 193.46 372.313 193.466 373.017C193.46 373.916 193.217 374.717 192.735 375.421C192.258 376.12 191.595 376.669 190.745 377.07C189.9 377.465 188.923 377.663 187.813 377.663ZM187.813 375.876C188.566 375.876 189.215 375.754 189.762 375.511C190.309 375.267 190.731 374.923 191.029 374.479C191.327 374.035 191.479 373.515 191.484 372.92C191.479 372.292 191.316 371.737 190.997 371.255C190.677 370.773 190.241 370.394 189.689 370.118C189.142 369.842 188.517 369.703 187.813 369.703C187.104 369.703 186.47 369.842 185.912 370.118C185.36 370.394 184.924 370.773 184.605 371.255C184.291 371.737 184.136 372.292 184.142 372.92C184.136 373.515 184.28 374.035 184.572 374.479C184.87 374.923 185.295 375.267 185.848 375.511C186.4 375.754 187.055 375.876 187.813 375.876ZM187.813 367.982C188.409 367.982 188.937 367.863 189.397 367.624C189.862 367.386 190.228 367.053 190.493 366.625C190.759 366.198 190.894 365.697 190.899 365.123C190.894 364.56 190.761 364.07 190.501 363.653C190.241 363.23 189.881 362.905 189.421 362.678C188.961 362.445 188.425 362.329 187.813 362.329C187.19 362.329 186.646 362.445 186.181 362.678C185.715 362.905 185.355 363.23 185.1 363.653C184.846 364.07 184.721 364.56 184.727 365.123C184.721 365.697 184.849 366.198 185.108 366.625C185.374 367.053 185.739 367.386 186.205 367.624C186.671 367.863 187.207 367.982 187.813 367.982Z" fill="#0A1811"/>
</g>
<rect width="66.9802" height="52.2772" transform="translate(216.01 343.436)" fill="white"/>
<path d="M237.162 377.436V375.974L242.652 369.963C243.296 369.259 243.827 368.648 244.244 368.128C244.661 367.603 244.97 367.11 245.17 366.65C245.376 366.184 245.479 365.697 245.479 365.188C245.479 364.603 245.338 364.097 245.056 363.669C244.78 363.241 244.401 362.911 243.919 362.678C243.437 362.445 242.896 362.329 242.295 362.329C241.656 362.329 241.098 362.461 240.622 362.727C240.151 362.987 239.785 363.352 239.525 363.823C239.271 364.294 239.143 364.847 239.143 365.48H237.227C237.227 364.505 237.451 363.65 237.901 362.914C238.35 362.177 238.962 361.603 239.736 361.192C240.516 360.78 241.39 360.574 242.36 360.574C243.334 360.574 244.198 360.78 244.951 361.192C245.703 361.603 246.293 362.158 246.721 362.857C247.149 363.555 247.363 364.332 247.363 365.188C247.363 365.8 247.252 366.398 247.03 366.983C246.813 367.562 246.434 368.209 245.893 368.924C245.357 369.633 244.612 370.499 243.659 371.523L239.923 375.519V375.649H247.655V377.436H237.162ZM256.305 360.574C256.987 360.58 257.669 360.71 258.352 360.964C259.034 361.219 259.657 361.641 260.22 362.231C260.783 362.816 261.235 363.615 261.576 364.627C261.917 365.64 262.088 366.91 262.088 368.436C262.088 369.915 261.947 371.228 261.665 372.376C261.389 373.518 260.989 374.482 260.463 375.267C259.944 376.052 259.31 376.648 258.563 377.054C257.821 377.46 256.982 377.663 256.045 377.663C255.114 377.663 254.283 377.479 253.552 377.111C252.826 376.737 252.231 376.22 251.765 375.559C251.305 374.893 251.01 374.122 250.88 373.245H252.861C253.04 374.008 253.395 374.639 253.925 375.137C254.461 375.63 255.168 375.876 256.045 375.876C257.328 375.876 258.341 375.316 259.083 374.195C259.83 373.074 260.204 371.49 260.204 369.444H260.074C259.77 369.898 259.41 370.291 258.993 370.621C258.576 370.952 258.113 371.206 257.605 371.385C257.096 371.563 256.554 371.653 255.98 371.653C255.027 371.653 254.153 371.417 253.357 370.946C252.566 370.47 251.933 369.817 251.456 368.989C250.985 368.155 250.75 367.202 250.75 366.13C250.75 365.112 250.977 364.181 251.432 363.336C251.892 362.486 252.536 361.809 253.365 361.305C254.199 360.802 255.179 360.558 256.305 360.574ZM256.305 362.361C255.623 362.361 255.008 362.532 254.461 362.873C253.92 363.209 253.489 363.664 253.17 364.237C252.856 364.806 252.699 365.437 252.699 366.13C252.699 366.823 252.85 367.454 253.154 368.022C253.462 368.585 253.882 369.035 254.413 369.37C254.949 369.701 255.558 369.866 256.24 369.866C256.754 369.866 257.234 369.766 257.678 369.565C258.122 369.36 258.509 369.081 258.839 368.729C259.175 368.371 259.437 367.968 259.627 367.519C259.816 367.064 259.911 366.59 259.911 366.097C259.911 365.448 259.754 364.838 259.44 364.27C259.131 363.701 258.704 363.241 258.157 362.889C257.615 362.537 256.998 362.361 256.305 362.361Z" fill="#0A1811"/>
<rect width="66.9802" height="52.2772" transform="translate(284.624 343.436)" fill="white"/>
<path d="M311.027 377.663C309.955 377.663 309 377.479 308.16 377.111C307.327 376.742 306.663 376.231 306.17 375.576C305.683 374.915 305.418 374.149 305.375 373.277H307.421C307.465 373.813 307.649 374.276 307.974 374.666C308.298 375.05 308.723 375.348 309.249 375.559C309.774 375.771 310.356 375.876 310.995 375.876C311.71 375.876 312.343 375.752 312.895 375.503C313.448 375.253 313.881 374.907 314.195 374.463C314.509 374.019 314.666 373.505 314.666 372.92C314.666 372.308 314.514 371.769 314.211 371.304C313.908 370.832 313.464 370.464 312.879 370.199C312.294 369.934 311.58 369.801 310.735 369.801H309.403V368.014H310.735C311.396 368.014 311.975 367.895 312.473 367.657C312.977 367.419 313.369 367.083 313.651 366.65C313.938 366.216 314.081 365.708 314.081 365.123C314.081 364.56 313.957 364.07 313.708 363.653C313.459 363.236 313.107 362.911 312.652 362.678C312.202 362.445 311.672 362.329 311.06 362.329C310.486 362.329 309.944 362.434 309.435 362.646C308.932 362.851 308.52 363.152 308.201 363.547C307.882 363.937 307.708 364.408 307.681 364.96H305.732C305.764 364.089 306.027 363.325 306.52 362.67C307.012 362.009 307.657 361.495 308.453 361.127C309.254 360.759 310.134 360.574 311.092 360.574C312.121 360.574 313.004 360.783 313.74 361.2C314.476 361.611 315.042 362.156 315.438 362.832C315.833 363.509 316.03 364.24 316.03 365.025C316.03 365.962 315.784 366.761 315.291 367.421C314.804 368.082 314.141 368.539 313.302 368.794V368.924C314.352 369.097 315.172 369.544 315.762 370.264C316.353 370.979 316.648 371.864 316.648 372.92C316.648 373.824 316.401 374.636 315.909 375.356C315.421 376.071 314.755 376.634 313.911 377.046C313.066 377.457 312.105 377.663 311.027 377.663ZM325.395 377.663C324.171 377.663 323.129 377.33 322.268 376.664C321.407 375.993 320.749 375.021 320.294 373.748C319.84 372.47 319.612 370.927 319.612 369.119C319.612 367.321 319.84 365.786 320.294 364.514C320.755 363.236 321.415 362.261 322.276 361.59C323.143 360.913 324.182 360.574 325.395 360.574C326.608 360.574 327.645 360.913 328.506 361.59C329.372 362.261 330.033 363.236 330.487 364.514C330.948 365.786 331.178 367.321 331.178 369.119C331.178 370.927 330.95 372.47 330.496 373.748C330.041 375.021 329.383 375.993 328.522 376.664C327.661 377.33 326.619 377.663 325.395 377.663ZM325.395 375.876C326.608 375.876 327.55 375.291 328.221 374.122C328.893 372.952 329.229 371.285 329.229 369.119C329.229 367.678 329.074 366.452 328.766 365.439C328.462 364.427 328.024 363.655 327.45 363.125C326.881 362.594 326.196 362.329 325.395 362.329C324.193 362.329 323.254 362.922 322.577 364.107C321.9 365.288 321.562 366.958 321.562 369.119C321.562 370.559 321.713 371.783 322.016 372.79C322.32 373.797 322.755 374.563 323.324 375.088C323.898 375.614 324.588 375.876 325.395 375.876Z" fill="#0A1811"/>
<rect width="66.9802" height="52.2772" transform="translate(353.238 343.436)" fill="white"/>
<path d="M381.473 377.663C380.401 377.663 379.445 377.479 378.606 377.111C377.772 376.742 377.109 376.231 376.616 375.576C376.129 374.915 375.863 374.149 375.82 373.277H377.867C377.91 373.813 378.094 374.276 378.419 374.666C378.744 375.05 379.169 375.348 379.694 375.559C380.219 375.771 380.801 375.876 381.44 375.876C382.155 375.876 382.789 375.752 383.341 375.503C383.893 375.253 384.326 374.907 384.64 374.463C384.954 374.019 385.111 373.505 385.111 372.92C385.111 372.308 384.96 371.769 384.657 371.304C384.353 370.832 383.909 370.464 383.325 370.199C382.74 369.934 382.025 369.801 381.18 369.801H379.848V368.014H381.18C381.841 368.014 382.42 367.895 382.918 367.657C383.422 367.419 383.815 367.083 384.096 366.65C384.383 366.216 384.527 365.708 384.527 365.123C384.527 364.56 384.402 364.07 384.153 363.653C383.904 363.236 383.552 362.911 383.097 362.678C382.648 362.445 382.117 362.329 381.505 362.329C380.931 362.329 380.39 362.434 379.881 362.646C379.377 362.851 378.966 363.152 378.646 363.547C378.327 363.937 378.154 364.408 378.127 364.96H376.177C376.21 364.089 376.472 363.325 376.965 362.67C377.458 362.009 378.102 361.495 378.898 361.127C379.699 360.759 380.579 360.574 381.538 360.574C382.567 360.574 383.449 360.783 384.185 361.2C384.922 361.611 385.488 362.156 385.883 362.832C386.278 363.509 386.476 364.24 386.476 365.025C386.476 365.962 386.23 366.761 385.737 367.421C385.249 368.082 384.586 368.539 383.747 368.794V368.924C384.797 369.097 385.618 369.544 386.208 370.264C386.798 370.979 387.093 371.864 387.093 372.92C387.093 373.824 386.847 374.636 386.354 375.356C385.867 376.071 385.201 376.634 384.356 377.046C383.511 377.457 382.55 377.663 381.473 377.663ZM396.263 360.802V377.436H394.249V362.914H394.151L390.09 365.61V363.563L394.249 360.802H396.263Z" fill="#0A1811"/>
<rect width="66.9802" height="52.2772" transform="translate(421.851 343.436)" fill="white"/>
<path d="M457.595 360.802V377.436H455.581V362.914H455.484L451.423 365.61V363.563L455.581 360.802H457.595Z" fill="#6C7470"/>
<defs>
<filter id="filter0_dd_34_909" x="0.366337" y="0.366337" width="498.267" height="44.109" filterUnits="userSpaceOnUse" color-interpolation-filters="sRGB">
<feFlood flood-opacity="0" result="BackgroundImageFix"/>
<feColorMatrix in="SourceAlpha" type="matrix" values="0 0 0 0 0 0 0 0 0 0 0 0 0 0 0 0 0 0 127 0" result="hardAlpha"/>
<feOffset dy="1.63366"/>
<feGaussianBlur stdDeviation="0.816832"/>
<feColorMatrix type="matrix" values="0 0 0 0 0 0 0 0 0 0 0 0 0 0 0 0 0 0 0.05 0"/>
<feBlend mode="normal" in2="BackgroundImageFix" result="effect1_dropShadow_34_909"/>
<feColorMatrix in="SourceAlpha" type="matrix" values="0 0 0 0 0 0 0 0 0 0 0 0 0 0 0 0 0 0 127 0" result="hardAlpha"/>
<feOffset/>
<feGaussianBlur stdDeviation="0.816832"/>
<feColorMatrix type="matrix" values="0 0 0 0 0 0 0 0 0 0 0 0 0 0 0 0 0 0 0.25 0"/>
<feBlend mode="normal" in2="effect1_dropShadow_34_909" result="effect2_dropShadow_34_909"/>
<feBlend mode="normal" in="SourceGraphic" in2="effect2_dropShadow_34_909" result="shape"/>
</filter>
<filter id="filter1_dd_34_909" x="13.4356" y="72.2477" width="472.129" height="27.7723" filterUnits="userSpaceOnUse" color-interpolation-filters="sRGB">
<feFlood flood-opacity="0" result="BackgroundImageFix"/>
<feColorMatrix in="SourceAlpha" type="matrix" values="0 0 0 0 0 0 0 0 0 0 0 0 0 0 0 0 0 0 127 0" result="hardAlpha"/>
<feOffset dy="1.63366"/>
<feGaussianBlur stdDeviation="0.816832"/>
<feColorMatrix type="matrix" values="0 0 0 0 0 0 0 0 0 0 0 0 0 0 0 0 0 0 0.05 0"/>
<feBlend mode="normal" in2="BackgroundImageFix" result="effect1_dropShadow_34_909"/>
<feColorMatrix in="SourceAlpha" type="matrix" values="0 0 0 0 0 0 0 0 0 0 0 0 0 0 0 0 0 0 127 0" result="hardAlpha"/>
<feOffset/>
<feGaussianBlur stdDeviation="0.816832"/>
<feColorMatrix type="matrix" values="0 0 0 0 0 0 0 0 0 0 0 0 0 0 0 0 0 0 0.25 0"/>
<feBlend mode="normal" in2="effect1_dropShadow_34_909" result="effect2_dropShadow_34_909"/>
<feBlend mode="normal" in="SourceGraphic" in2="effect2_dropShadow_34_909" result="shape"/>
</filter>
<clipPath id="clip0_34_909">
<rect width="66.9802" height="52.2772" fill="white" transform="translate(147.396 129.426)"/>
</clipPath>
<clipPath id="clip1_34_909">
<rect width="66.9802" height="52.2772" fill="white" transform="translate(147.396 183.336)"/>
</clipPath>
<clipPath id="clip2_34_909">
<rect width="66.9802" height="52.2772" fill="white" transform="translate(147.396 237.248)"/>
</clipPath>
<clipPath id="clip3_34_909">
<rect width="66.9802" height="52.2772" fill="white" transform="translate(147.396 291.158)"/>
</clipPath>
<clipPath id="clip4_34_909">
<rect width="66.9802" height="52.2772" fill="white" transform="translate(147.396 343.436)"/>
</clipPath>
</defs>
</svg>
